<?xml version="1.0" encoding="UTF-8" standalone="no"?>
<!DOCTYPE svg PUBLIC "-//W3C//DTD SVG 1.1//EN"
 "http://www.w3.org/Graphics/SVG/1.1/DTD/svg11.dtd">
<!-- Generated by graphviz version 9.0.0 (20230911.1827)
 -->
<!-- Title: dependency&#45;cruiser output Pages: 1 -->
<svg width="803pt" height="354pt"
 viewBox="0.00 0.00 802.50 354.00" xmlns="http://www.w3.org/2000/svg" xmlns:xlink="http://www.w3.org/1999/xlink">
<g id="graph0" class="graph" transform="scale(1 1) rotate(0) translate(4 350)">
<title>dependency&#45;cruiser output</title>
<polygon fill="white" stroke="none" points="-4,4 -4,-350 798.5,-350 798.5,4 -4,4"/>
<g id="clust1" class="cluster">
<title>cluster_src</title>
<path fill="#ffffff" stroke="black" stroke-width="2" d="M20,-8C20,-8 774.5,-8 774.5,-8 780.5,-8 786.5,-14 786.5,-20 786.5,-20 786.5,-326 786.5,-326 786.5,-332 780.5,-338 774.5,-338 774.5,-338 20,-338 20,-338 14,-338 8,-332 8,-326 8,-326 8,-20 8,-20 8,-14 14,-8 20,-8"/>
<text text-anchor="middle" x="397.25" y="-325.45" font-family="Helvetica,sans-Serif" font-weight="bold" font-size="9.00">src</text>
</g>
<g id="clust2" class="cluster">
<title>cluster_src/base</title>
<path fill="#ffffff" stroke="black" stroke-width="2" d="M265.25,-16C265.25,-16 606.5,-16 606.5,-16 612.5,-16 618.5,-22 618.5,-28 618.5,-28 618.5,-84 618.5,-84 618.5,-90 612.5,-96 606.5,-96 606.5,-96 265.25,-96 265.25,-96 259.25,-96 253.25,-90 253.25,-84 253.25,-84 253.25,-28 253.25,-28 253.25,-22 259.25,-16 265.25,-16"/>
<text text-anchor="middle" x="435.88" y="-83.45" font-family="Helvetica,sans-Serif" font-weight="bold" font-size="9.00">base</text>
</g>
<g id="clust4" class="cluster">
<title>cluster_src/open</title>
<path fill="#ffffff" stroke="black" stroke-width="2" d="M265.25,-104C265.25,-104 704.5,-104 704.5,-104 710.5,-104 716.5,-110 716.5,-116 716.5,-116 716.5,-186 716.5,-186 716.5,-192 710.5,-198 704.5,-198 704.5,-198 265.25,-198 265.25,-198 259.25,-198 253.25,-192 253.25,-186 253.25,-186 253.25,-116 253.25,-116 253.25,-110 259.25,-104 265.25,-104"/>
<text text-anchor="middle" x="484.88" y="-185.45" font-family="Helvetica,sans-Serif" font-weight="bold" font-size="9.00">open</text>
</g>
<g id="clust3" class="cluster">
<title>cluster_src/mapbox</title>
<path fill="#ffffff" stroke="black" stroke-width="2" d="M188.75,-216C188.75,-216 415,-216 415,-216 421,-216 427,-222 427,-228 427,-228 427,-300 427,-300 427,-306 421,-312 415,-312 415,-312 188.75,-312 188.75,-312 182.75,-312 176.75,-306 176.75,-300 176.75,-300 176.75,-228 176.75,-228 176.75,-222 182.75,-216 188.75,-216"/>
<text text-anchor="middle" x="301.88" y="-299.45" font-family="Helvetica,sans-Serif" font-weight="bold" font-size="9.00">mapbox</text>
</g>
<!-- src/base/index.ts -->
<g id="node1" class="node">
<title>src/base/index.ts</title>
<g id="a_node1"><a xlink:href="src/base/index.ts" xlink:title="index.ts">
<path fill="#ddfeff" stroke="black" d="M309.33,-69.88C309.33,-69.88 267.17,-69.88 267.17,-69.88 264.21,-69.88 261.25,-66.92 261.25,-63.96 261.25,-63.96 261.25,-58.04 261.25,-58.04 261.25,-55.08 264.21,-52.12 267.17,-52.12 267.17,-52.12 309.33,-52.12 309.33,-52.12 312.29,-52.12 315.25,-55.08 315.25,-58.04 315.25,-58.04 315.25,-63.96 315.25,-63.96 315.25,-66.92 312.29,-69.88 309.33,-69.88"/>
<text text-anchor="start" x="272.5" y="-57.33" font-family="Helvetica,sans-Serif" font-size="9.00">index.ts</text>
</a>
</g>
</g>
<!-- src/base/vectorFeature.ts -->
<g id="node2" class="node">
<title>src/base/vectorFeature.ts</title>
<g id="a_node2"><a xlink:href="src/base/vectorFeature.ts" xlink:title="vectorFeature.ts">
<path fill="#ddfeff" stroke="black" d="M604.58,-69.88C604.58,-69.88 535.17,-69.88 535.17,-69.88 532.21,-69.88 529.25,-66.92 529.25,-63.96 529.25,-63.96 529.25,-58.04 529.25,-58.04 529.25,-55.08 532.21,-52.12 535.17,-52.12 535.17,-52.12 604.58,-52.12 604.58,-52.12 607.54,-52.12 610.5,-55.08 610.5,-58.04 610.5,-58.04 610.5,-63.96 610.5,-63.96 610.5,-66.92 607.54,-69.88 604.58,-69.88"/>
<text text-anchor="start" x="537.25" y="-57.33" font-family="Helvetica,sans-Serif" font-size="9.00">vectorFeature.ts</text>
</a>
</g>
</g>
<!-- src/base/index.ts&#45;&gt;src/base/vectorFeature.ts -->
<g id="edge1" class="edge">
<title>src/base/index.ts&#45;&gt;src/base/vectorFeature.ts</title>
<path fill="none" stroke="#000000" stroke-width="2" stroke-opacity="0.200000" d="M304.34,-51.7C313.61,-46.55 325.93,-40.66 337.75,-38 415.22,-20.56 438.17,-31.51 516.25,-46 521.82,-47.03 527.66,-48.4 533.32,-49.89"/>
<polygon fill="#000000" fill-opacity="0.200000" stroke="#000000" stroke-width="2" stroke-opacity="0.200000" points="538.36,-53.44 533.13,-49.84 539.47,-49.39 538.36,-53.44"/>
</g>
<!-- src/base/vectorLayer.ts -->
<g id="node3" class="node">
<title>src/base/vectorLayer.ts</title>
<g id="a_node3"><a xlink:href="src/base/vectorLayer.ts" xlink:title="vectorLayer.ts">
<path fill="#ddfeff" stroke="black" d="M506.21,-69.88C506.21,-69.88 445.04,-69.88 445.04,-69.88 442.08,-69.88 439.12,-66.92 439.12,-63.96 439.12,-63.96 439.12,-58.04 439.12,-58.04 439.12,-55.08 442.08,-52.12 445.04,-52.12 445.04,-52.12 506.21,-52.12 506.21,-52.12 509.17,-52.12 512.12,-55.08 512.12,-58.04 512.12,-58.04 512.12,-63.96 512.12,-63.96 512.12,-66.92 509.17,-69.88 506.21,-69.88"/>
<text text-anchor="start" x="447.12" y="-57.33" font-family="Helvetica,sans-Serif" font-size="9.00">vectorLayer.ts</text>
</a>
</g>
</g>
<!-- src/base/index.ts&#45;&gt;src/base/vectorLayer.ts -->
<g id="edge2" class="edge">
<title>src/base/index.ts&#45;&gt;src/base/vectorLayer.ts</title>
<path fill="none" stroke="#000000" stroke-width="2" stroke-opacity="0.200000" d="M314.09,-51.75C321.58,-49.39 329.91,-47.19 337.75,-46 376.97,-40.07 387.79,-39.97 427,-46 432.42,-46.83 438.07,-48.17 443.51,-49.71"/>
<polygon fill="#000000" fill-opacity="0.200000" stroke="#000000" stroke-width="2" stroke-opacity="0.200000" points="448.68,-53.47 443.55,-49.73 449.9,-49.45 448.68,-53.47"/>
</g>
<!-- src/base/vectorTile.ts -->
<g id="node4" class="node">
<title>src/base/vectorTile.ts</title>
<g id="a_node4"><a xlink:href="src/base/vectorTile.ts" xlink:title="vectorTile.ts">
<path fill="#ddfeff" stroke="black" d="M404.46,-69.88C404.46,-69.88 352.29,-69.88 352.29,-69.88 349.33,-69.88 346.38,-66.92 346.38,-63.96 346.38,-63.96 346.38,-58.04 346.38,-58.04 346.38,-55.08 349.33,-52.12 352.29,-52.12 352.29,-52.12 404.46,-52.12 404.46,-52.12 407.42,-52.12 410.38,-55.08 410.38,-58.04 410.38,-58.04 410.38,-63.96 410.38,-63.96 410.38,-66.92 407.42,-69.88 404.46,-69.88"/>
<text text-anchor="start" x="354.38" y="-57.33" font-family="Helvetica,sans-Serif" font-size="9.00">vectorTile.ts</text>
</a>
</g>
</g>
<!-- src/base/index.ts&#45;&gt;src/base/vectorTile.ts -->
<g id="edge3" class="edge">
<title>src/base/index.ts&#45;&gt;src/base/vectorTile.ts</title>
<path fill="none" stroke="#000000" stroke-width="2" stroke-opacity="0.200000" d="M315.69,-61C322.99,-61 331.06,-61 338.89,-61"/>
<polygon fill="#000000" fill-opacity="0.200000" stroke="#000000" stroke-width="2" stroke-opacity="0.200000" points="344.98,-63.1 338.98,-61 344.98,-58.9 344.98,-63.1"/>
</g>
<!-- src/open/columnCache.ts -->
<g id="node5" class="node">
<title>src/open/columnCache.ts</title>
<g id="a_node5"><a xlink:href="src/open/columnCache.ts" xlink:title="columnCache.ts">
<path fill="#ddfeff" stroke="black" d="M702.58,-146.88C702.58,-146.88 632.42,-146.88 632.42,-146.88 629.46,-146.88 626.5,-143.92 626.5,-140.96 626.5,-140.96 626.5,-135.04 626.5,-135.04 626.5,-132.08 629.46,-129.12 632.42,-129.12 632.42,-129.12 702.58,-129.12 702.58,-129.12 705.54,-129.12 708.5,-132.08 708.5,-135.04 708.5,-135.04 708.5,-140.96 708.5,-140.96 708.5,-143.92 705.54,-146.88 702.58,-146.88"/>
<text text-anchor="start" x="634.5" y="-134.32" font-family="Helvetica,sans-Serif" font-size="9.00">columnCache.ts</text>
</a>
</g>
</g>
<!-- src/base/vectorFeature.ts&#45;&gt;src/open/columnCache.ts -->
<g id="edge4" class="edge">
<title>src/base/vectorFeature.ts&#45;&gt;src/open/columnCache.ts</title>
<path fill="none" stroke="#000000" stroke-width="2" stroke-opacity="0.200000" d="M585.67,-70.19C596.17,-77.4 609.88,-88.32 618.5,-101 623.54,-108.41 620.56,-114.22 625.6,-122.24"/>
<polygon fill="#000000" fill-opacity="0.200000" stroke="#000000" stroke-width="2" stroke-opacity="0.200000" points="623.81,-123.38 629.31,-126.56 627,-120.64 623.81,-123.38"/>
</g>
<!-- src/open/shape.ts -->
<g id="node6" class="node">
<title>src/open/shape.ts</title>
<g id="a_node6"><a xlink:href="src/open/shape.ts" xlink:title="shape.ts">
<path fill="#ddfeff" stroke="black" d="M590.96,-157.88C590.96,-157.88 548.79,-157.88 548.79,-157.88 545.83,-157.88 542.88,-154.92 542.88,-151.96 542.88,-151.96 542.88,-146.04 542.88,-146.04 542.88,-143.08 545.83,-140.12 548.79,-140.12 548.79,-140.12 590.96,-140.12 590.96,-140.12 593.92,-140.12 596.88,-143.08 596.88,-146.04 596.88,-146.04 596.88,-151.96 596.88,-151.96 596.88,-154.92 593.92,-157.88 590.96,-157.88"/>
<text text-anchor="start" x="552.62" y="-145.32" font-family="Helvetica,sans-Serif" font-size="9.00">shape.ts</text>
</a>
</g>
</g>
<!-- src/base/vectorFeature.ts&#45;&gt;src/open/shape.ts -->
<g id="edge5" class="edge">
<title>src/base/vectorFeature.ts&#45;&gt;src/open/shape.ts</title>
<path fill="none" stroke="#000000" stroke-width="2" stroke-opacity="0.200000" d="M569.88,-70.28C569.88,-90.46 569.88,-110.64 569.88,-130.82"/>
<polygon fill="#000000" fill-opacity="0.200000" stroke="#000000" stroke-width="2" stroke-opacity="0.200000" points="567.78,-130.75 569.88,-136.75 571.98,-130.75 567.78,-130.75"/>
</g>
<!-- src/util.ts -->
<g id="node7" class="node">
<title>src/util.ts</title>
<g id="a_node7"><a xlink:href="src/util.ts" xlink:title="util.ts">
<path fill="#ddfeff" stroke="black" d="M772.58,-175.88C772.58,-175.88 730.42,-175.88 730.42,-175.88 727.46,-175.88 724.5,-172.92 724.5,-169.96 724.5,-169.96 724.5,-164.04 724.5,-164.04 724.5,-161.08 727.46,-158.12 730.42,-158.12 730.42,-158.12 772.58,-158.12 772.58,-158.12 775.54,-158.12 778.5,-161.08 778.5,-164.04 778.5,-164.04 778.5,-169.96 778.5,-169.96 778.5,-172.92 775.54,-175.88 772.58,-175.88"/>
<text text-anchor="start" x="741" y="-163.32" font-family="Helvetica,sans-Serif" font-size="9.00">util.ts</text>
</a>
</g>
</g>
<!-- src/base/vectorFeature.ts&#45;&gt;src/util.ts -->
<g id="edge6" class="edge">
<title>src/base/vectorFeature.ts&#45;&gt;src/util.ts</title>
<path fill="none" stroke="#000000" stroke-width="2" stroke-opacity="0.200000" d="M610.99,-63.34C642.7,-67.07 686.47,-76.64 716.5,-101 731.75,-113.37 740.89,-134.4 745.79,-149.39"/>
<polygon fill="#000000" fill-opacity="0.200000" stroke="#000000" stroke-width="2" stroke-opacity="0.200000" points="743.72,-149.77 747.45,-154.92 747.74,-148.57 743.72,-149.77"/>
</g>
<!-- src/base/vectorLayer.ts&#45;&gt;src/base/vectorFeature.ts -->
<g id="edge7" class="edge">
<title>src/base/vectorLayer.ts&#45;&gt;src/base/vectorFeature.ts</title>
<path fill="none" stroke="#000000" stroke-width="2" stroke-opacity="0.200000" d="M512.56,-61C514.99,-61 517.45,-61 519.94,-61"/>
<polygon fill="#000000" fill-opacity="0.200000" stroke="#000000" stroke-width="2" stroke-opacity="0.200000" points="519.89,-63.1 525.89,-61 519.89,-58.9 519.89,-63.1"/>
</g>
<!-- src/base/vectorTile.ts&#45;&gt;src/base/vectorLayer.ts -->
<g id="edge9" class="edge">
<title>src/base/vectorTile.ts&#45;&gt;src/base/vectorLayer.ts</title>
<path fill="none" stroke="#000000" stroke-width="2" stroke-opacity="0.200000" d="M410.83,-61C417.01,-61 423.61,-61 430.13,-61"/>
<polygon fill="#000000" fill-opacity="0.200000" stroke="#000000" stroke-width="2" stroke-opacity="0.200000" points="429.89,-63.1 435.89,-61 429.89,-58.9 429.89,-63.1"/>
</g>
<!-- src/mapbox/vectorLayer.ts -->
<g id="node8" class="node">
<title>src/mapbox/vectorLayer.ts</title>
<g id="a_node8"><a xlink:href="src/mapbox/vectorLayer.ts" xlink:title="vectorLayer.ts">
<path fill="#ddfeff" stroke="black" d="M318.83,-271.88C318.83,-271.88 257.67,-271.88 257.67,-271.88 254.71,-271.88 251.75,-268.92 251.75,-265.96 251.75,-265.96 251.75,-260.04 251.75,-260.04 251.75,-257.08 254.71,-254.12 257.67,-254.12 257.67,-254.12 318.83,-254.12 318.83,-254.12 321.79,-254.12 324.75,-257.08 324.75,-260.04 324.75,-260.04 324.75,-265.96 324.75,-265.96 324.75,-268.92 321.79,-271.88 318.83,-271.88"/>
<text text-anchor="start" x="259.75" y="-259.32" font-family="Helvetica,sans-Serif" font-size="9.00">vectorLayer.ts</text>
</a>
</g>
</g>
<!-- src/base/vectorTile.ts&#45;&gt;src/mapbox/vectorLayer.ts -->
<g id="edge8" class="edge">
<title>src/base/vectorTile.ts&#45;&gt;src/mapbox/vectorLayer.ts</title>
<path fill="none" stroke="#000000" stroke-width="2" stroke-opacity="0.200000" d="M364.28,-70.24C355.15,-77.48 343.59,-88.41 337.75,-101 324.92,-128.66 341.4,-209.03 323.43,-246.19"/>
<polygon fill="#000000" fill-opacity="0.200000" stroke="#000000" stroke-width="2" stroke-opacity="0.200000" points="321.66,-245.05 320.31,-251.26 325.24,-247.25 321.66,-245.05"/>
</g>
<!-- src/open/columnCache.ts&#45;&gt;src/util.ts -->
<g id="edge21" class="edge">
<title>src/open/columnCache.ts&#45;&gt;src/util.ts</title>
<path fill="none" stroke="#000000" stroke-width="2" stroke-opacity="0.200000" d="M705.66,-147.36C709.35,-148.5 713.02,-149.72 716.5,-151 719.05,-151.94 721.67,-152.99 724.27,-154.1"/>
<polygon fill="#000000" fill-opacity="0.200000" stroke="#000000" stroke-width="2" stroke-opacity="0.200000" points="723.31,-155.97 729.64,-156.52 725.03,-152.14 723.31,-155.97"/>
</g>
<!-- src/open/shape.ts&#45;&gt;src/open/columnCache.ts -->
<g id="edge25" class="edge">
<title>src/open/shape.ts&#45;&gt;src/open/columnCache.ts</title>
<path fill="none" stroke="#000000" stroke-width="2" stroke-opacity="0.200000" d="M597.26,-145.97C603.56,-145.24 610.48,-144.44 617.43,-143.64"/>
<polygon fill="#000000" fill-opacity="0.200000" stroke="#000000" stroke-width="2" stroke-opacity="0.200000" points="617.49,-145.75 623.22,-142.98 617.01,-141.58 617.49,-145.75"/>
</g>
<!-- src/mapbox/vectorFeature.ts -->
<g id="node15" class="node">
<title>src/mapbox/vectorFeature.ts</title>
<g id="a_node15"><a xlink:href="src/mapbox/vectorFeature.ts" xlink:title="vectorFeature.ts">
<path fill="#ddfeff" stroke="black" d="M413.08,-278.88C413.08,-278.88 343.67,-278.88 343.67,-278.88 340.71,-278.88 337.75,-275.92 337.75,-272.96 337.75,-272.96 337.75,-267.04 337.75,-267.04 337.75,-264.08 340.71,-261.12 343.67,-261.12 343.67,-261.12 413.08,-261.12 413.08,-261.12 416.04,-261.12 419,-264.08 419,-267.04 419,-267.04 419,-272.96 419,-272.96 419,-275.92 416.04,-278.88 413.08,-278.88"/>
<text text-anchor="start" x="345.75" y="-266.32" font-family="Helvetica,sans-Serif" font-size="9.00">vectorFeature.ts</text>
</a>
</g>
</g>
<!-- src/mapbox/vectorLayer.ts&#45;&gt;src/mapbox/vectorFeature.ts -->
<g id="edge20" class="edge">
<title>src/mapbox/vectorLayer.ts&#45;&gt;src/mapbox/vectorFeature.ts</title>
<path fill="none" stroke="#000000" stroke-width="2" stroke-opacity="0.200000" d="M325.09,-265.85C326.25,-265.94 327.41,-266.03 328.57,-266.12"/>
<polygon fill="#000000" fill-opacity="0.200000" stroke="#000000" stroke-width="2" stroke-opacity="0.200000" points="328.37,-268.21 334.52,-266.6 328.7,-264.03 328.37,-268.21"/>
</g>
<!-- src/ieee754.ts -->
<g id="node9" class="node">
<title>src/ieee754.ts</title>
<g id="a_node9"><a xlink:href="src/ieee754.ts" xlink:title="ieee754.ts">
<path fill="#ddfeff" stroke="black" d="M690.96,-223.88C690.96,-223.88 644.04,-223.88 644.04,-223.88 641.08,-223.88 638.12,-220.92 638.12,-217.96 638.12,-217.96 638.12,-212.04 638.12,-212.04 638.12,-209.08 641.08,-206.12 644.04,-206.12 644.04,-206.12 690.96,-206.12 690.96,-206.12 693.92,-206.12 696.88,-209.08 696.88,-212.04 696.88,-212.04 696.88,-217.96 696.88,-217.96 696.88,-220.92 693.92,-223.88 690.96,-223.88"/>
<text text-anchor="start" x="646.12" y="-211.32" font-family="Helvetica,sans-Serif" font-size="9.00">ieee754.ts</text>
</a>
</g>
</g>
<!-- src/index.ts -->
<g id="node10" class="node">
<title>src/index.ts</title>
<g id="a_node10"><a xlink:href="src/index.ts" xlink:title="index.ts">
<path fill="#ddfeff" stroke="black" d="M64.08,-149.88C64.08,-149.88 21.92,-149.88 21.92,-149.88 18.96,-149.88 16,-146.92 16,-143.96 16,-143.96 16,-138.04 16,-138.04 16,-135.08 18.96,-132.12 21.92,-132.12 21.92,-132.12 64.08,-132.12 64.08,-132.12 67.04,-132.12 70,-135.08 70,-138.04 70,-138.04 70,-143.96 70,-143.96 70,-146.92 67.04,-149.88 64.08,-149.88"/>
<text text-anchor="start" x="27.25" y="-137.32" font-family="Helvetica,sans-Serif" font-size="9.00">index.ts</text>
</a>
</g>
</g>
<!-- src/index.ts&#45;&gt;src/base/index.ts -->
<g id="edge10" class="edge">
<title>src/index.ts&#45;&gt;src/base/index.ts</title>
<path fill="none" stroke="#000000" stroke-width="2" stroke-opacity="0.200000" d="M61.99,-131.65C87.08,-118.96 134.28,-96.33 176.75,-83 202.18,-75.02 231.84,-69.3 254.03,-65.7"/>
<polygon fill="#000000" fill-opacity="0.200000" stroke="#000000" stroke-width="2" stroke-opacity="0.200000" points="260.29,-66.83 254.04,-65.7 259.64,-62.68 260.29,-66.83"/>
</g>
<!-- src/vectorTile.ts -->
<g id="node11" class="node">
<title>src/vectorTile.ts</title>
<g id="a_node11"><a xlink:href="src/vectorTile.ts" xlink:title="vectorTile.ts">
<path fill="#ddfeff" stroke="black" d="M151.96,-149.88C151.96,-149.88 99.79,-149.88 99.79,-149.88 96.83,-149.88 93.88,-146.92 93.88,-143.96 93.88,-143.96 93.88,-138.04 93.88,-138.04 93.88,-135.08 96.83,-132.12 99.79,-132.12 99.79,-132.12 151.96,-132.12 151.96,-132.12 154.92,-132.12 157.88,-135.08 157.88,-138.04 157.88,-138.04 157.88,-143.96 157.88,-143.96 157.88,-146.92 154.92,-149.88 151.96,-149.88"/>
<text text-anchor="start" x="101.88" y="-137.32" font-family="Helvetica,sans-Serif" font-size="9.00">vectorTile.ts</text>
</a>
</g>
</g>
<!-- src/index.ts&#45;&gt;src/vectorTile.ts -->
<g id="edge11" class="edge">
<title>src/index.ts&#45;&gt;src/vectorTile.ts</title>
<path fill="none" stroke="#000000" stroke-width="2" stroke-opacity="0.200000" d="M70.48,-141C75.66,-141 81.2,-141 86.67,-141"/>
<polygon fill="#000000" fill-opacity="0.200000" stroke="#000000" stroke-width="2" stroke-opacity="0.200000" points="92.55,-143.1 86.55,-141 92.55,-138.9 92.55,-143.1"/>
</g>
<!-- src/vectorTile.spec.ts -->
<g id="node12" class="node">
<title>src/vectorTile.spec.ts</title>
<g id="a_node12"><a xlink:href="src/vectorTile.spec.ts" xlink:title="vectorTile.spec.ts">
<path fill="#ddfeff" stroke="black" d="M162.83,-179.88C162.83,-179.88 88.92,-179.88 88.92,-179.88 85.96,-179.88 83,-176.92 83,-173.96 83,-173.96 83,-168.04 83,-168.04 83,-165.08 85.96,-162.12 88.92,-162.12 88.92,-162.12 162.83,-162.12 162.83,-162.12 165.79,-162.12 168.75,-165.08 168.75,-168.04 168.75,-168.04 168.75,-173.96 168.75,-173.96 168.75,-176.92 165.79,-179.88 162.83,-179.88"/>
<text text-anchor="start" x="91" y="-167.32" font-family="Helvetica,sans-Serif" font-size="9.00">vectorTile.spec.ts</text>
</a>
</g>
</g>
<!-- src/index.ts&#45;&gt;src/vectorTile.spec.ts -->
<g id="edge12" class="edge">
<title>src/index.ts&#45;&gt;src/vectorTile.spec.ts</title>
<g id="a_edge12"><a xlink:title="not&#45;to&#45;spec">
<path fill="none" stroke="orange" stroke-width="2" d="M67.89,-150.29C72.88,-152.2 78.1,-154.18 83,-156 86.01,-157.12 89.14,-158.27 92.29,-159.41"/>
<polygon fill="orange" stroke="orange" stroke-width="2" points="97.05,-163.37 92.12,-159.35 98.48,-159.42 97.05,-163.37"/>
</a>
</g>
<text text-anchor="middle" x="106.44" y="-152.53" font-family="Helvetica,sans-Serif" font-size="9.00" fill="orange">not&#45;to&#45;spec</text>
</g>
<!-- src/vectorTile.ts&#45;&gt;src/base/index.ts -->
<g id="edge34" class="edge">
<title>src/vectorTile.ts&#45;&gt;src/base/index.ts</title>
<path fill="none" stroke="#000000" stroke-width="2" stroke-opacity="0.200000" d="M145.59,-131.67C174.07,-117.46 228.43,-90.34 260.9,-74.14"/>
<polygon fill="#000000" fill-opacity="0.200000" stroke="#000000" stroke-width="2" stroke-opacity="0.200000" points="261.52,-76.18 265.95,-71.63 259.64,-72.42 261.52,-76.18"/>
</g>
<!-- src/mapbox/index.ts -->
<g id="node13" class="node">
<title>src/mapbox/index.ts</title>
<g id="a_node13"><a xlink:href="src/mapbox/index.ts" xlink:title="index.ts">
<path fill="#ddfeff" stroke="black" d="M232.83,-256.88C232.83,-256.88 190.67,-256.88 190.67,-256.88 187.71,-256.88 184.75,-253.92 184.75,-250.96 184.75,-250.96 184.75,-245.04 184.75,-245.04 184.75,-242.08 187.71,-239.12 190.67,-239.12 190.67,-239.12 232.83,-239.12 232.83,-239.12 235.79,-239.12 238.75,-242.08 238.75,-245.04 238.75,-245.04 238.75,-250.96 238.75,-250.96 238.75,-253.92 235.79,-256.88 232.83,-256.88"/>
<text text-anchor="start" x="196" y="-244.32" font-family="Helvetica,sans-Serif" font-size="9.00">index.ts</text>
</a>
</g>
</g>
<!-- src/vectorTile.ts&#45;&gt;src/mapbox/index.ts -->
<g id="edge35" class="edge">
<title>src/vectorTile.ts&#45;&gt;src/mapbox/index.ts</title>
<path fill="none" stroke="#000000" stroke-width="2" stroke-opacity="0.200000" d="M158.32,-147.71C162.33,-149.77 165.99,-152.47 168.75,-156 190.5,-183.8 155.3,-206.98 176.75,-235 177.01,-235.34 177.28,-235.67 177.56,-235.99"/>
<polygon fill="#000000" fill-opacity="0.200000" stroke="#000000" stroke-width="2" stroke-opacity="0.200000" points="176.16,-237.56 182.16,-239.66 178.78,-234.28 176.16,-237.56"/>
</g>
<!-- src/pbf.ts -->
<g id="node17" class="node">
<title>src/pbf.ts</title>
<g id="a_node17"><a xlink:href="src/pbf.ts" xlink:title="pbf.ts">
<path fill="#ddfeff" stroke="black" d="M590.96,-223.88C590.96,-223.88 548.79,-223.88 548.79,-223.88 545.83,-223.88 542.88,-220.92 542.88,-217.96 542.88,-217.96 542.88,-212.04 542.88,-212.04 542.88,-209.08 545.83,-206.12 548.79,-206.12 548.79,-206.12 590.96,-206.12 590.96,-206.12 593.92,-206.12 596.88,-209.08 596.88,-212.04 596.88,-212.04 596.88,-217.96 596.88,-217.96 596.88,-220.92 593.92,-223.88 590.96,-223.88"/>
<text text-anchor="start" x="559" y="-211.32" font-family="Helvetica,sans-Serif" font-size="9.00">pbf.ts</text>
</a>
</g>
</g>
<!-- src/vectorTile.ts&#45;&gt;src/pbf.ts -->
<g id="edge37" class="edge">
<title>src/vectorTile.ts&#45;&gt;src/pbf.ts</title>
<path fill="none" stroke="#000000" stroke-width="2" stroke-opacity="0.200000" d="M154.59,-150.25C159.36,-152.04 164.24,-153.98 168.75,-156 221.09,-179.4 229.91,-207 287.25,-207 287.25,-207 287.25,-207 379.38,-207 433.33,-207 495.86,-210.28 533.87,-212.64"/>
<polygon fill="#000000" fill-opacity="0.200000" stroke="#000000" stroke-width="2" stroke-opacity="0.200000" points="533.38,-214.71 539.5,-212.99 533.65,-210.52 533.38,-214.71"/>
</g>
<!-- src/open/index.ts -->
<g id="node18" class="node">
<title>src/open/index.ts</title>
<g id="a_node18"><a xlink:href="src/open/index.ts" xlink:title="index.ts">
<path fill="#ddfeff" stroke="black" d="M309.33,-149.88C309.33,-149.88 267.17,-149.88 267.17,-149.88 264.21,-149.88 261.25,-146.92 261.25,-143.96 261.25,-143.96 261.25,-138.04 261.25,-138.04 261.25,-135.08 264.21,-132.12 267.17,-132.12 267.17,-132.12 309.33,-132.12 309.33,-132.12 312.29,-132.12 315.25,-135.08 315.25,-138.04 315.25,-138.04 315.25,-143.96 315.25,-143.96 315.25,-146.92 312.29,-149.88 309.33,-149.88"/>
<text text-anchor="start" x="272.5" y="-137.32" font-family="Helvetica,sans-Serif" font-size="9.00">index.ts</text>
</a>
</g>
</g>
<!-- src/vectorTile.ts&#45;&gt;src/open/index.ts -->
<g id="edge36" class="edge">
<title>src/vectorTile.ts&#45;&gt;src/open/index.ts</title>
<path fill="none" stroke="#000000" stroke-width="2" stroke-opacity="0.200000" d="M158.18,-141C185.16,-141 224.08,-141 252.11,-141"/>
<polygon fill="#000000" fill-opacity="0.200000" stroke="#000000" stroke-width="2" stroke-opacity="0.200000" points="251.78,-143.1 257.78,-141 251.78,-138.9 251.78,-143.1"/>
</g>
<!-- src/mapbox/index.ts&#45;&gt;src/mapbox/vectorLayer.ts -->
<g id="edge15" class="edge">
<title>src/mapbox/index.ts&#45;&gt;src/mapbox/vectorLayer.ts</title>
<path fill="none" stroke="#000000" stroke-width="2" stroke-opacity="0.200000" d="M239.23,-253.33C240.95,-253.68 242.7,-254.03 244.47,-254.39"/>
<polygon fill="#000000" fill-opacity="0.200000" stroke="#000000" stroke-width="2" stroke-opacity="0.200000" points="249.95,-257.63 244.49,-254.39 250.78,-253.52 249.95,-257.63"/>
</g>
<!-- src/mapbox/serializeS2.ts -->
<g id="node14" class="node">
<title>src/mapbox/serializeS2.ts</title>
<g id="a_node14"><a xlink:href="src/mapbox/serializeS2.ts" xlink:title="serializeS2.ts">
<path fill="#ddfeff" stroke="black" d="M317.71,-241.88C317.71,-241.88 258.79,-241.88 258.79,-241.88 255.83,-241.88 252.88,-238.92 252.88,-235.96 252.88,-235.96 252.88,-230.04 252.88,-230.04 252.88,-227.08 255.83,-224.12 258.79,-224.12 258.79,-224.12 317.71,-224.12 317.71,-224.12 320.67,-224.12 323.62,-227.08 323.62,-230.04 323.62,-230.04 323.62,-235.96 323.62,-235.96 323.62,-238.92 320.67,-241.88 317.71,-241.88"/>
<text text-anchor="start" x="260.88" y="-229.32" font-family="Helvetica,sans-Serif" font-size="9.00">serializeS2.ts</text>
</a>
</g>
</g>
<!-- src/mapbox/index.ts&#45;&gt;src/mapbox/serializeS2.ts -->
<g id="edge13" class="edge">
<title>src/mapbox/index.ts&#45;&gt;src/mapbox/serializeS2.ts</title>
<path fill="none" stroke="#000000" stroke-width="2" stroke-opacity="0.200000" d="M239.23,-242.67C241.36,-242.24 243.54,-241.8 245.75,-241.36"/>
<polygon fill="#000000" fill-opacity="0.200000" stroke="#000000" stroke-width="2" stroke-opacity="0.200000" points="251.83,-242.27 245.53,-241.4 251,-238.16 251.83,-242.27"/>
</g>
<!-- src/mapbox/index.ts&#45;&gt;src/mapbox/vectorFeature.ts -->
<g id="edge14" class="edge">
<title>src/mapbox/index.ts&#45;&gt;src/mapbox/vectorFeature.ts</title>
<path fill="none" stroke="#000000" stroke-width="2" stroke-opacity="0.200000" d="M221.33,-257.34C228.62,-264.54 239.78,-273.93 251.75,-278 278.51,-287.1 310.3,-284.96 335.2,-280.62"/>
<polygon fill="#000000" fill-opacity="0.200000" stroke="#000000" stroke-width="2" stroke-opacity="0.200000" points="341.44,-281.59 335.15,-280.63 340.66,-277.46 341.44,-281.59"/>
</g>
<!-- src/mapbox/serializeS2.ts&#45;&gt;src/base/index.ts -->
<g id="edge16" class="edge">
<title>src/mapbox/serializeS2.ts&#45;&gt;src/base/index.ts</title>
<path fill="none" stroke="#000000" stroke-width="2" stroke-opacity="0.200000" d="M271.91,-223.67C262.13,-217.07 250.6,-207.23 245.25,-195 237.41,-177.09 238.07,-125.19 245.25,-107 250.05,-94.85 259.74,-84.01 268.71,-75.92"/>
<polygon fill="#000000" fill-opacity="0.200000" stroke="#000000" stroke-width="2" stroke-opacity="0.200000" points="269.82,-77.73 273.03,-72.24 267.1,-74.53 269.82,-77.73"/>
</g>
<!-- src/mapbox/serializeS2.ts&#45;&gt;src/util.ts -->
<g id="edge19" class="edge">
<title>src/mapbox/serializeS2.ts&#45;&gt;src/util.ts</title>
<path fill="none" stroke="#000000" stroke-width="2" stroke-opacity="0.200000" d="M324.09,-234.2C361.35,-235.38 422.15,-237 474.62,-237 474.62,-237 474.62,-237 570.88,-237 635.67,-237 661.67,-264.53 716.5,-230 732.53,-219.91 741.52,-199.51 746.17,-184.65"/>
<polygon fill="#000000" fill-opacity="0.200000" stroke="#000000" stroke-width="2" stroke-opacity="0.200000" points="748.11,-185.51 747.72,-179.17 744.07,-184.38 748.11,-185.51"/>
</g>
<!-- src/open/vectorLayer.ts -->
<g id="node16" class="node">
<title>src/open/vectorLayer.ts</title>
<g id="a_node16"><a xlink:href="src/open/vectorLayer.ts" xlink:title="vectorLayer.ts">
<path fill="#ddfeff" stroke="black" d="M408.96,-171.88C408.96,-171.88 347.79,-171.88 347.79,-171.88 344.83,-171.88 341.88,-168.92 341.88,-165.96 341.88,-165.96 341.88,-160.04 341.88,-160.04 341.88,-157.08 344.83,-154.12 347.79,-154.12 347.79,-154.12 408.96,-154.12 408.96,-154.12 411.92,-154.12 414.88,-157.08 414.88,-160.04 414.88,-160.04 414.88,-165.96 414.88,-165.96 414.88,-168.92 411.92,-171.88 408.96,-171.88"/>
<text text-anchor="start" x="349.88" y="-159.32" font-family="Helvetica,sans-Serif" font-size="9.00">vectorLayer.ts</text>
</a>
</g>
</g>
<!-- src/mapbox/serializeS2.ts&#45;&gt;src/open/vectorLayer.ts -->
<g id="edge17" class="edge">
<title>src/mapbox/serializeS2.ts&#45;&gt;src/open/vectorLayer.ts</title>
<path fill="none" stroke="#000000" stroke-width="2" stroke-opacity="0.200000" d="M300.77,-223.85C315.55,-212.11 341.36,-191.61 358.9,-177.68"/>
<polygon fill="#000000" fill-opacity="0.200000" stroke="#000000" stroke-width="2" stroke-opacity="0.200000" points="360.09,-179.41 363.48,-174.04 357.48,-176.12 360.09,-179.41"/>
</g>
<!-- src/mapbox/serializeS2.ts&#45;&gt;src/pbf.ts -->
<g id="edge18" class="edge">
<title>src/mapbox/serializeS2.ts&#45;&gt;src/pbf.ts</title>
<path fill="none" stroke="#000000" stroke-width="2" stroke-opacity="0.200000" d="M324.1,-230.76C377.8,-227.3 480.18,-220.71 533.93,-217.25"/>
<polygon fill="#000000" fill-opacity="0.200000" stroke="#000000" stroke-width="2" stroke-opacity="0.200000" points="533.88,-219.36 539.73,-216.88 533.61,-215.17 533.88,-219.36"/>
</g>
<!-- src/open/vectorLayer.ts&#45;&gt;src/open/columnCache.ts -->
<g id="edge31" class="edge">
<title>src/open/vectorLayer.ts&#45;&gt;src/open/columnCache.ts</title>
<path fill="none" stroke="#000000" stroke-width="2" stroke-opacity="0.200000" d="M415.21,-167.36C473.24,-173.72 584.71,-182.88 618.5,-164 622.76,-161.62 622.27,-158.11 625.7,-153.41"/>
<polygon fill="#000000" fill-opacity="0.200000" stroke="#000000" stroke-width="2" stroke-opacity="0.200000" points="626.98,-155.1 629.86,-149.43 624.07,-152.07 626.98,-155.1"/>
</g>
<!-- src/open/vectorFeature.ts -->
<g id="node19" class="node">
<title>src/open/vectorFeature.ts</title>
<g id="a_node19"><a xlink:href="src/open/vectorFeature.ts" xlink:title="vectorFeature.ts">
<path fill="#ddfeff" stroke="black" d="M510.33,-157.88C510.33,-157.88 440.92,-157.88 440.92,-157.88 437.96,-157.88 435,-154.92 435,-151.96 435,-151.96 435,-146.04 435,-146.04 435,-143.08 437.96,-140.12 440.92,-140.12 440.92,-140.12 510.33,-140.12 510.33,-140.12 513.29,-140.12 516.25,-143.08 516.25,-146.04 516.25,-146.04 516.25,-151.96 516.25,-151.96 516.25,-154.92 513.29,-157.88 510.33,-157.88"/>
<text text-anchor="start" x="443" y="-145.32" font-family="Helvetica,sans-Serif" font-size="9.00">vectorFeature.ts</text>
</a>
</g>
</g>
<!-- src/open/vectorLayer.ts&#45;&gt;src/open/vectorFeature.ts -->
<g id="edge32" class="edge">
<title>src/open/vectorLayer.ts&#45;&gt;src/open/vectorFeature.ts</title>
<path fill="none" stroke="#000000" stroke-width="2" stroke-opacity="0.200000" d="M415.11,-157.75C418.58,-157.24 422.13,-156.72 425.7,-156.19"/>
<polygon fill="#000000" fill-opacity="0.200000" stroke="#000000" stroke-width="2" stroke-opacity="0.200000" points="425.9,-158.28 431.53,-155.33 425.29,-154.13 425.9,-158.28"/>
</g>
<!-- src/pbf.ts&#45;&gt;src/ieee754.ts -->
<g id="edge33" class="edge">
<title>src/pbf.ts&#45;&gt;src/ieee754.ts</title>
<path fill="none" stroke="#000000" stroke-width="2" stroke-opacity="0.200000" d="M597.26,-215C607.11,-215 618.48,-215 629.13,-215"/>
<polygon fill="#000000" fill-opacity="0.200000" stroke="#000000" stroke-width="2" stroke-opacity="0.200000" points="628.83,-217.1 634.83,-215 628.83,-212.9 628.83,-217.1"/>
</g>
<!-- src/open/index.ts&#45;&gt;src/open/columnCache.ts -->
<g id="edge22" class="edge">
<title>src/open/index.ts&#45;&gt;src/open/columnCache.ts</title>
<path fill="none" stroke="#000000" stroke-width="2" stroke-opacity="0.200000" d="M315.37,-137.46C371.17,-130.44 506.11,-116.42 618.5,-128 618.65,-128.02 618.81,-128.03 618.96,-128.05"/>
<polygon fill="#000000" fill-opacity="0.200000" stroke="#000000" stroke-width="2" stroke-opacity="0.200000" points="624.74,-130.91 619.06,-128.06 625.28,-126.74 624.74,-130.91"/>
</g>
<!-- src/open/index.ts&#45;&gt;src/open/vectorLayer.ts -->
<g id="edge24" class="edge">
<title>src/open/index.ts&#45;&gt;src/open/vectorLayer.ts</title>
<path fill="none" stroke="#000000" stroke-width="2" stroke-opacity="0.200000" d="M315.69,-147.6C321.65,-149.09 328.12,-150.7 334.56,-152.31"/>
<polygon fill="#000000" fill-opacity="0.200000" stroke="#000000" stroke-width="2" stroke-opacity="0.200000" points="340.02,-155.84 334.71,-152.35 341.04,-151.76 340.02,-155.84"/>
</g>
<!-- src/open/index.ts&#45;&gt;src/open/vectorFeature.ts -->
<g id="edge23" class="edge">
<title>src/open/index.ts&#45;&gt;src/open/vectorFeature.ts</title>
<path fill="none" stroke="#000000" stroke-width="2" stroke-opacity="0.200000" d="M315.42,-142.13C344.52,-143.39 392.1,-145.44 427.68,-146.97"/>
<polygon fill="#000000" fill-opacity="0.200000" stroke="#000000" stroke-width="2" stroke-opacity="0.200000" points="433.54,-149.33 427.64,-146.97 433.72,-145.13 433.54,-149.33"/>
</g>
<!-- src/open/vectorFeature.ts&#45;&gt;src/base/index.ts -->
<g id="edge26" class="edge">
<title>src/open/vectorFeature.ts&#45;&gt;src/base/index.ts</title>
<path fill="none" stroke="#000000" stroke-width="2" stroke-opacity="0.200000" d="M455.12,-139.74C422.01,-124.02 354.72,-92.08 316.81,-74.08"/>
<polygon fill="#000000" fill-opacity="0.200000" stroke="#000000" stroke-width="2" stroke-opacity="0.200000" points="317.79,-72.23 311.47,-71.55 315.99,-76.02 317.79,-72.23"/>
</g>
<!-- src/open/vectorFeature.ts&#45;&gt;src/open/columnCache.ts -->
<g id="edge29" class="edge">
<title>src/open/vectorFeature.ts&#45;&gt;src/open/columnCache.ts</title>
<path fill="none" stroke="#000000" stroke-width="2" stroke-opacity="0.200000" d="M503.9,-139.67C511.96,-137.34 520.88,-135.17 529.25,-134 558.18,-129.96 590.87,-130.7 617.08,-132.58"/>
<polygon fill="#000000" fill-opacity="0.200000" stroke="#000000" stroke-width="2" stroke-opacity="0.200000" points="616.9,-134.67 623.05,-133.04 617.23,-130.48 616.9,-134.67"/>
</g>
<!-- src/open/vectorFeature.ts&#45;&gt;src/open/shape.ts -->
<g id="edge30" class="edge">
<title>src/open/vectorFeature.ts&#45;&gt;src/open/shape.ts</title>
<path fill="none" stroke="#000000" stroke-width="2" stroke-opacity="0.200000" d="M516.55,-149C522.3,-149 528.19,-149 533.83,-149"/>
<polygon fill="#000000" fill-opacity="0.200000" stroke="#000000" stroke-width="2" stroke-opacity="0.200000" points="533.43,-151.1 539.43,-149 533.43,-146.9 533.43,-151.1"/>
</g>
<!-- src/open/vectorFeature.ts&#45;&gt;src/util.ts -->
<g id="edge28" class="edge">
<title>src/open/vectorFeature.ts&#45;&gt;src/util.ts</title>
<path fill="none" stroke="#000000" stroke-width="2" stroke-opacity="0.200000" d="M504.18,-158.33C512.18,-160.64 520.98,-162.79 529.25,-164 594.36,-173.55 671.41,-171.66 715.26,-169.37"/>
<polygon fill="#000000" fill-opacity="0.200000" stroke="#000000" stroke-width="2" stroke-opacity="0.200000" points="715.2,-171.47 721.07,-169.04 714.97,-167.28 715.2,-171.47"/>
</g>
<!-- src/open/vectorFeature.ts&#45;&gt;src/pbf.ts -->
<g id="edge27" class="edge">
<title>src/open/vectorFeature.ts&#45;&gt;src/pbf.ts</title>
<path fill="none" stroke="#000000" stroke-width="2" stroke-opacity="0.200000" d="M511.51,-158.16C513.22,-159.3 514.81,-160.57 516.25,-162 529.2,-174.89 516.45,-187.97 529.25,-201 530.86,-202.64 532.67,-204.09 534.62,-205.37"/>
<polygon fill="#000000" fill-opacity="0.200000" stroke="#000000" stroke-width="2" stroke-opacity="0.200000" points="533.62,-207.21 539.91,-208.11 535.55,-203.48 533.62,-207.21"/>
</g>
</g>
</svg>
