<?xml version="1.0" encoding="UTF-8" standalone="no"?>
<!DOCTYPE svg PUBLIC "-//W3C//DTD SVG 1.1//EN"
 "http://www.w3.org/Graphics/SVG/1.1/DTD/svg11.dtd">
<!-- Generated by graphviz version 9.0.0 (20230911.1827)
 -->
<!-- Title: dependency&#45;cruiser output Pages: 1 -->
<svg width="837pt" height="354pt"
 viewBox="0.00 0.00 837.00 354.00" xmlns="http://www.w3.org/2000/svg" xmlns:xlink="http://www.w3.org/1999/xlink">
<g id="graph0" class="graph" transform="scale(1 1) rotate(0) translate(4 350)">
<title>dependency&#45;cruiser output</title>
<polygon fill="white" stroke="none" points="-4,4 -4,-350 833,-350 833,4 -4,4"/>
<g id="clust1" class="cluster">
<title>cluster_src</title>
<path fill="#ffffff" stroke="black" stroke-width="2" d="M20,-8C20,-8 809,-8 809,-8 815,-8 821,-14 821,-20 821,-20 821,-326 821,-326 821,-332 815,-338 809,-338 809,-338 20,-338 20,-338 14,-338 8,-332 8,-326 8,-326 8,-20 8,-20 8,-14 14,-8 20,-8"/>
<text text-anchor="middle" x="414.5" y="-325.45" font-family="Helvetica,sans-Serif" font-weight="bold" font-size="9.00">src</text>
</g>
<g id="clust2" class="cluster">
<title>cluster_src/baseVectorTile</title>
<path fill="#ffffff" stroke="black" stroke-width="2" d="M188.75,-16C188.75,-16 555,-16 555,-16 561,-16 567,-22 567,-28 567,-28 567,-84 567,-84 567,-90 561,-96 555,-96 555,-96 188.75,-96 188.75,-96 182.75,-96 176.75,-90 176.75,-84 176.75,-84 176.75,-28 176.75,-28 176.75,-22 182.75,-16 188.75,-16"/>
<text text-anchor="middle" x="371.88" y="-83.45" font-family="Helvetica,sans-Serif" font-weight="bold" font-size="9.00">baseVectorTile</text>
</g>
<g id="clust3" class="cluster">
<title>cluster_src/mapboxVectorTile</title>
<path fill="#ffffff" stroke="black" stroke-width="2" d="M188.75,-206C188.75,-206 433.38,-206 433.38,-206 439.38,-206 445.38,-212 445.38,-218 445.38,-218 445.38,-290 445.38,-290 445.38,-296 439.38,-302 433.38,-302 433.38,-302 188.75,-302 188.75,-302 182.75,-302 176.75,-296 176.75,-290 176.75,-290 176.75,-218 176.75,-218 176.75,-212 182.75,-206 188.75,-206"/>
<text text-anchor="middle" x="311.06" y="-289.45" font-family="Helvetica,sans-Serif" font-weight="bold" font-size="9.00">mapboxVectorTile</text>
</g>
<g id="clust4" class="cluster">
<title>cluster_src/openVectorTile</title>
<path fill="#ffffff" stroke="black" stroke-width="2" d="M271.25,-104C271.25,-104 739,-104 739,-104 745,-104 751,-110 751,-116 751,-116 751,-186 751,-186 751,-192 745,-198 739,-198 739,-198 271.25,-198 271.25,-198 265.25,-198 259.25,-192 259.25,-186 259.25,-186 259.25,-116 259.25,-116 259.25,-110 265.25,-104 271.25,-104"/>
<text text-anchor="middle" x="505.12" y="-185.45" font-family="Helvetica,sans-Serif" font-weight="bold" font-size="9.00">openVectorTile</text>
</g>
<!-- src/baseVectorTile/baseVectorFeature.ts -->
<g id="node1" class="node">
<title>src/baseVectorTile/baseVectorFeature.ts</title>
<g id="a_node1"><a xlink:href="src/baseVectorTile/baseVectorFeature.ts" xlink:title="baseVectorFeature.ts">
<path fill="#ddfeff" stroke="black" d="M553.08,-69.88C553.08,-69.88 462.67,-69.88 462.67,-69.88 459.71,-69.88 456.75,-66.92 456.75,-63.96 456.75,-63.96 456.75,-58.04 456.75,-58.04 456.75,-55.08 459.71,-52.12 462.67,-52.12 462.67,-52.12 553.08,-52.12 553.08,-52.12 556.04,-52.12 559,-55.08 559,-58.04 559,-58.04 559,-63.96 559,-63.96 559,-66.92 556.04,-69.88 553.08,-69.88"/>
<text text-anchor="start" x="464.75" y="-57.33" font-family="Helvetica,sans-Serif" font-size="9.00">baseVectorFeature.ts</text>
</a>
</g>
</g>
<!-- src/openVectorTile/columnCache.ts -->
<g id="node2" class="node">
<title>src/openVectorTile/columnCache.ts</title>
<g id="a_node2"><a xlink:href="src/openVectorTile/columnCache.ts" xlink:title="columnCache.ts">
<path fill="#ddfeff" stroke="black" d="M737.08,-154.88C737.08,-154.88 666.92,-154.88 666.92,-154.88 663.96,-154.88 661,-151.92 661,-148.96 661,-148.96 661,-143.04 661,-143.04 661,-140.08 663.96,-137.12 666.92,-137.12 666.92,-137.12 737.08,-137.12 737.08,-137.12 740.04,-137.12 743,-140.08 743,-143.04 743,-143.04 743,-148.96 743,-148.96 743,-151.92 740.04,-154.88 737.08,-154.88"/>
<text text-anchor="start" x="669" y="-142.32" font-family="Helvetica,sans-Serif" font-size="9.00">columnCache.ts</text>
</a>
</g>
</g>
<!-- src/baseVectorTile/baseVectorFeature.ts&#45;&gt;src/openVectorTile/columnCache.ts -->
<g id="edge1" class="edge">
<title>src/baseVectorTile/baseVectorFeature.ts&#45;&gt;src/openVectorTile/columnCache.ts</title>
<path fill="none" stroke="#000000" stroke-width="2" stroke-opacity="0.200000" d="M530.09,-70.34C542.96,-75.84 559.77,-82.72 575,-88 606.9,-99.06 621.69,-87.84 648,-109 655.68,-115.18 653.31,-122.04 660.07,-130.58"/>
<polygon fill="#000000" fill-opacity="0.200000" stroke="#000000" stroke-width="2" stroke-opacity="0.200000" points="658.52,-131.99 664.28,-134.66 661.44,-128.98 658.52,-131.99"/>
</g>
<!-- src/openVectorTile/vectorValue.ts -->
<g id="node3" class="node">
<title>src/openVectorTile/vectorValue.ts</title>
<g id="a_node3"><a xlink:href="src/openVectorTile/vectorValue.ts" xlink:title="vectorValue.ts">
<path fill="#ddfeff" stroke="black" d="M642.08,-143.88C642.08,-143.88 580.92,-143.88 580.92,-143.88 577.96,-143.88 575,-140.92 575,-137.96 575,-137.96 575,-132.04 575,-132.04 575,-129.08 577.96,-126.12 580.92,-126.12 580.92,-126.12 642.08,-126.12 642.08,-126.12 645.04,-126.12 648,-129.08 648,-132.04 648,-132.04 648,-137.96 648,-137.96 648,-140.92 645.04,-143.88 642.08,-143.88"/>
<text text-anchor="start" x="583" y="-131.32" font-family="Helvetica,sans-Serif" font-size="9.00">vectorValue.ts</text>
</a>
</g>
</g>
<!-- src/baseVectorTile/baseVectorFeature.ts&#45;&gt;src/openVectorTile/vectorValue.ts -->
<g id="edge2" class="edge">
<title>src/baseVectorTile/baseVectorFeature.ts&#45;&gt;src/openVectorTile/vectorValue.ts</title>
<path fill="none" stroke="#000000" stroke-width="2" stroke-opacity="0.200000" d="M522.9,-70.3C534.78,-78.26 552.19,-90.13 567,-101 575.52,-107.25 584.77,-114.43 592.54,-120.57"/>
<polygon fill="#000000" fill-opacity="0.200000" stroke="#000000" stroke-width="2" stroke-opacity="0.200000" points="590.82,-121.89 596.83,-123.98 593.44,-118.6 590.82,-121.89"/>
</g>
<!-- src/util.ts -->
<g id="node4" class="node">
<title>src/util.ts</title>
<g id="a_node4"><a xlink:href="src/util.ts" xlink:title="util.ts">
<path fill="#ddfeff" stroke="black" d="M807.08,-179.88C807.08,-179.88 764.92,-179.88 764.92,-179.88 761.96,-179.88 759,-176.92 759,-173.96 759,-173.96 759,-168.04 759,-168.04 759,-165.08 761.96,-162.12 764.92,-162.12 764.92,-162.12 807.08,-162.12 807.08,-162.12 810.04,-162.12 813,-165.08 813,-168.04 813,-168.04 813,-173.96 813,-173.96 813,-176.92 810.04,-179.88 807.08,-179.88"/>
<text text-anchor="start" x="775.5" y="-167.32" font-family="Helvetica,sans-Serif" font-size="9.00">util.ts</text>
</a>
</g>
</g>
<!-- src/baseVectorTile/baseVectorFeature.ts&#45;&gt;src/util.ts -->
<g id="edge3" class="edge">
<title>src/baseVectorTile/baseVectorFeature.ts&#45;&gt;src/util.ts</title>
<path fill="none" stroke="#000000" stroke-width="2" stroke-opacity="0.200000" d="M559.49,-56.56C612.4,-54.6 695.35,-59.46 751,-101 768.02,-113.7 776.95,-137.19 781.32,-153.43"/>
<polygon fill="#000000" fill-opacity="0.200000" stroke="#000000" stroke-width="2" stroke-opacity="0.200000" points="779.23,-153.74 782.68,-159.08 783.31,-152.75 779.23,-153.74"/>
</g>
<!-- src/openVectorTile/columnCache.ts&#45;&gt;src/util.ts -->
<g id="edge21" class="edge">
<title>src/openVectorTile/columnCache.ts&#45;&gt;src/util.ts</title>
<path fill="none" stroke="#000000" stroke-width="2" stroke-opacity="0.200000" d="M738.73,-155.36C741.72,-156.21 744.7,-157.08 750.62,-158.94"/>
<polygon fill="#000000" fill-opacity="0.200000" stroke="#000000" stroke-width="2" stroke-opacity="0.200000" points="749.84,-160.89 756.19,-160.71 751.11,-156.89 749.84,-160.89"/>
</g>
<!-- src/openVectorTile/vectorValue.ts&#45;&gt;src/openVectorTile/columnCache.ts -->
<g id="edge32" class="edge">
<title>src/openVectorTile/vectorValue.ts&#45;&gt;src/openVectorTile/columnCache.ts</title>
<path fill="none" stroke="#000000" stroke-width="2" stroke-opacity="0.200000" d="M648.5,-139.47C649.63,-139.61 650.76,-139.76 651.91,-139.9"/>
<polygon fill="#000000" fill-opacity="0.200000" stroke="#000000" stroke-width="2" stroke-opacity="0.200000" points="651.48,-141.96 657.7,-140.62 652,-137.79 651.48,-141.96"/>
</g>
<!-- src/baseVectorTile/baseVectorLayer.ts -->
<g id="node5" class="node">
<title>src/baseVectorTile/baseVectorLayer.ts</title>
<g id="a_node5"><a xlink:href="src/baseVectorTile/baseVectorLayer.ts" xlink:title="baseVectorLayer.ts">
<path fill="#ddfeff" stroke="black" d="M437.83,-69.88C437.83,-69.88 355.67,-69.88 355.67,-69.88 352.71,-69.88 349.75,-66.92 349.75,-63.96 349.75,-63.96 349.75,-58.04 349.75,-58.04 349.75,-55.08 352.71,-52.12 355.67,-52.12 355.67,-52.12 437.83,-52.12 437.83,-52.12 440.79,-52.12 443.75,-55.08 443.75,-58.04 443.75,-58.04 443.75,-63.96 443.75,-63.96 443.75,-66.92 440.79,-69.88 437.83,-69.88"/>
<text text-anchor="start" x="357.75" y="-57.33" font-family="Helvetica,sans-Serif" font-size="9.00">baseVectorLayer.ts</text>
</a>
</g>
</g>
<!-- src/baseVectorTile/baseVectorLayer.ts&#45;&gt;src/baseVectorTile/baseVectorFeature.ts -->
<g id="edge4" class="edge">
<title>src/baseVectorTile/baseVectorLayer.ts&#45;&gt;src/baseVectorTile/baseVectorFeature.ts</title>
<path fill="none" stroke="#000000" stroke-width="2" stroke-opacity="0.200000" d="M444.03,-61C445.17,-61 446.32,-61 447.47,-61"/>
<polygon fill="#000000" fill-opacity="0.200000" stroke="#000000" stroke-width="2" stroke-opacity="0.200000" points="447.3,-63.1 453.3,-61 447.3,-58.9 447.3,-63.1"/>
</g>
<!-- src/baseVectorTile/baseVectorTile.ts -->
<g id="node6" class="node">
<title>src/baseVectorTile/baseVectorTile.ts</title>
<g id="a_node6"><a xlink:href="src/baseVectorTile/baseVectorTile.ts" xlink:title="baseVectorTile.ts">
<path fill="#ddfeff" stroke="black" d="M330.83,-69.88C330.83,-69.88 257.67,-69.88 257.67,-69.88 254.71,-69.88 251.75,-66.92 251.75,-63.96 251.75,-63.96 251.75,-58.04 251.75,-58.04 251.75,-55.08 254.71,-52.12 257.67,-52.12 257.67,-52.12 330.83,-52.12 330.83,-52.12 333.79,-52.12 336.75,-55.08 336.75,-58.04 336.75,-58.04 336.75,-63.96 336.75,-63.96 336.75,-66.92 333.79,-69.88 330.83,-69.88"/>
<text text-anchor="start" x="259.75" y="-57.33" font-family="Helvetica,sans-Serif" font-size="9.00">baseVectorTile.ts</text>
</a>
</g>
</g>
<!-- src/baseVectorTile/baseVectorTile.ts&#45;&gt;src/baseVectorTile/baseVectorLayer.ts -->
<g id="edge6" class="edge">
<title>src/baseVectorTile/baseVectorTile.ts&#45;&gt;src/baseVectorTile/baseVectorLayer.ts</title>
<path fill="none" stroke="#000000" stroke-width="2" stroke-opacity="0.200000" d="M337,-61C338.15,-61 339.31,-61 340.47,-61"/>
<polygon fill="#000000" fill-opacity="0.200000" stroke="#000000" stroke-width="2" stroke-opacity="0.200000" points="340.39,-63.1 346.39,-61 340.39,-58.9 340.39,-63.1"/>
</g>
<!-- src/mapboxVectorTile/vectorLayer.ts -->
<g id="node7" class="node">
<title>src/mapboxVectorTile/vectorLayer.ts</title>
<g id="a_node7"><a xlink:href="src/mapboxVectorTile/vectorLayer.ts" xlink:title="vectorLayer.ts">
<path fill="#ddfeff" stroke="black" d="M324.83,-231.88C324.83,-231.88 263.67,-231.88 263.67,-231.88 260.71,-231.88 257.75,-228.92 257.75,-225.96 257.75,-225.96 257.75,-220.04 257.75,-220.04 257.75,-217.08 260.71,-214.12 263.67,-214.12 263.67,-214.12 324.83,-214.12 324.83,-214.12 327.79,-214.12 330.75,-217.08 330.75,-220.04 330.75,-220.04 330.75,-225.96 330.75,-225.96 330.75,-228.92 327.79,-231.88 324.83,-231.88"/>
<text text-anchor="start" x="265.75" y="-219.32" font-family="Helvetica,sans-Serif" font-size="9.00">vectorLayer.ts</text>
</a>
</g>
</g>
<!-- src/baseVectorTile/baseVectorTile.ts&#45;&gt;src/mapboxVectorTile/vectorLayer.ts -->
<g id="edge5" class="edge">
<title>src/baseVectorTile/baseVectorTile.ts&#45;&gt;src/mapboxVectorTile/vectorLayer.ts</title>
<path fill="none" stroke="#000000" stroke-width="2" stroke-opacity="0.200000" d="M279.11,-70.19C267.41,-78.25 252.11,-91.15 245.25,-107 237.48,-124.95 237.41,-177.09 245.25,-195 247.79,-200.8 252.17,-205.46 257.3,-209.18"/>
<polygon fill="#000000" fill-opacity="0.200000" stroke="#000000" stroke-width="2" stroke-opacity="0.200000" points="255.86,-210.76 262.08,-212.11 258.06,-207.18 255.86,-210.76"/>
</g>
<!-- src/mapboxVectorTile/vectorFeature.ts -->
<g id="node15" class="node">
<title>src/mapboxVectorTile/vectorFeature.ts</title>
<g id="a_node15"><a xlink:href="src/mapboxVectorTile/vectorFeature.ts" xlink:title="vectorFeature.ts">
<path fill="#ddfeff" stroke="black" d="M431.46,-231.88C431.46,-231.88 362.04,-231.88 362.04,-231.88 359.08,-231.88 356.12,-228.92 356.12,-225.96 356.12,-225.96 356.12,-220.04 356.12,-220.04 356.12,-217.08 359.08,-214.12 362.04,-214.12 362.04,-214.12 431.46,-214.12 431.46,-214.12 434.42,-214.12 437.38,-217.08 437.38,-220.04 437.38,-220.04 437.38,-225.96 437.38,-225.96 437.38,-228.92 434.42,-231.88 431.46,-231.88"/>
<text text-anchor="start" x="364.12" y="-219.32" font-family="Helvetica,sans-Serif" font-size="9.00">vectorFeature.ts</text>
</a>
</g>
</g>
<!-- src/mapboxVectorTile/vectorLayer.ts&#45;&gt;src/mapboxVectorTile/vectorFeature.ts -->
<g id="edge20" class="edge">
<title>src/mapboxVectorTile/vectorLayer.ts&#45;&gt;src/mapboxVectorTile/vectorFeature.ts</title>
<path fill="none" stroke="#000000" stroke-width="2" stroke-opacity="0.200000" d="M331.25,-223C336.37,-223 341.71,-223 347.03,-223"/>
<polygon fill="#000000" fill-opacity="0.200000" stroke="#000000" stroke-width="2" stroke-opacity="0.200000" points="346.88,-225.1 352.88,-223 346.88,-220.9 346.88,-225.1"/>
</g>
<!-- src/baseVectorTile/index.ts -->
<g id="node8" class="node">
<title>src/baseVectorTile/index.ts</title>
<g id="a_node8"><a xlink:href="src/baseVectorTile/index.ts" xlink:title="index.ts">
<path fill="#ddfeff" stroke="black" d="M232.83,-69.88C232.83,-69.88 190.67,-69.88 190.67,-69.88 187.71,-69.88 184.75,-66.92 184.75,-63.96 184.75,-63.96 184.75,-58.04 184.75,-58.04 184.75,-55.08 187.71,-52.12 190.67,-52.12 190.67,-52.12 232.83,-52.12 232.83,-52.12 235.79,-52.12 238.75,-55.08 238.75,-58.04 238.75,-58.04 238.75,-63.96 238.75,-63.96 238.75,-66.92 235.79,-69.88 232.83,-69.88"/>
<text text-anchor="start" x="196" y="-57.33" font-family="Helvetica,sans-Serif" font-size="9.00">index.ts</text>
</a>
</g>
</g>
<!-- src/baseVectorTile/index.ts&#45;&gt;src/baseVectorTile/baseVectorFeature.ts -->
<g id="edge7" class="edge">
<title>src/baseVectorTile/index.ts&#45;&gt;src/baseVectorTile/baseVectorFeature.ts</title>
<path fill="none" stroke="#000000" stroke-width="2" stroke-opacity="0.200000" d="M224.63,-51.72C231.99,-46.58 241.89,-40.69 251.75,-38 334.84,-15.32 360.3,-32.59 445.38,-46 452.13,-47.07 459.24,-48.5 466.13,-50.06"/>
<polygon fill="#000000" fill-opacity="0.200000" stroke="#000000" stroke-width="2" stroke-opacity="0.200000" points="471.47,-53.47 466.11,-50.06 472.43,-49.38 471.47,-53.47"/>
</g>
<!-- src/baseVectorTile/index.ts&#45;&gt;src/baseVectorTile/baseVectorLayer.ts -->
<g id="edge8" class="edge">
<title>src/baseVectorTile/index.ts&#45;&gt;src/baseVectorTile/baseVectorLayer.ts</title>
<path fill="none" stroke="#000000" stroke-width="2" stroke-opacity="0.200000" d="M232.58,-51.76C238.6,-49.4 245.33,-47.19 251.75,-46 288.89,-39.1 299.26,-41.31 336.75,-46 343.75,-46.88 351.11,-48.31 358.17,-49.96"/>
<polygon fill="#000000" fill-opacity="0.200000" stroke="#000000" stroke-width="2" stroke-opacity="0.200000" points="363.63,-53.47 358.3,-50 364.63,-49.39 363.63,-53.47"/>
</g>
<!-- src/baseVectorTile/index.ts&#45;&gt;src/baseVectorTile/baseVectorTile.ts -->
<g id="edge9" class="edge">
<title>src/baseVectorTile/index.ts&#45;&gt;src/baseVectorTile/baseVectorTile.ts</title>
<path fill="none" stroke="#000000" stroke-width="2" stroke-opacity="0.200000" d="M239.11,-61C240.83,-61 242.6,-61 244.39,-61"/>
<polygon fill="#000000" fill-opacity="0.200000" stroke="#000000" stroke-width="2" stroke-opacity="0.200000" points="250.37,-63.1 244.37,-61 250.37,-58.9 250.37,-63.1"/>
</g>
<!-- src/ieee754.ts -->
<g id="node9" class="node">
<title>src/ieee754.ts</title>
<g id="a_node9"><a xlink:href="src/ieee754.ts" xlink:title="ieee754.ts">
<path fill="#ddfeff" stroke="black" d="M725.46,-275.88C725.46,-275.88 678.54,-275.88 678.54,-275.88 675.58,-275.88 672.62,-272.92 672.62,-269.96 672.62,-269.96 672.62,-264.04 672.62,-264.04 672.62,-261.08 675.58,-258.12 678.54,-258.12 678.54,-258.12 725.46,-258.12 725.46,-258.12 728.42,-258.12 731.38,-261.08 731.38,-264.04 731.38,-264.04 731.38,-269.96 731.38,-269.96 731.38,-272.92 728.42,-275.88 725.46,-275.88"/>
<text text-anchor="start" x="680.62" y="-263.32" font-family="Helvetica,sans-Serif" font-size="9.00">ieee754.ts</text>
</a>
</g>
</g>
<!-- src/index.ts -->
<g id="node10" class="node">
<title>src/index.ts</title>
<g id="a_node10"><a xlink:href="src/index.ts" xlink:title="index.ts">
<path fill="#ddfeff" stroke="black" d="M64.08,-149.88C64.08,-149.88 21.92,-149.88 21.92,-149.88 18.96,-149.88 16,-146.92 16,-143.96 16,-143.96 16,-138.04 16,-138.04 16,-135.08 18.96,-132.12 21.92,-132.12 21.92,-132.12 64.08,-132.12 64.08,-132.12 67.04,-132.12 70,-135.08 70,-138.04 70,-138.04 70,-143.96 70,-143.96 70,-146.92 67.04,-149.88 64.08,-149.88"/>
<text text-anchor="start" x="27.25" y="-137.32" font-family="Helvetica,sans-Serif" font-size="9.00">index.ts</text>
</a>
</g>
</g>
<!-- src/index.ts&#45;&gt;src/baseVectorTile/index.ts -->
<g id="edge10" class="edge">
<title>src/index.ts&#45;&gt;src/baseVectorTile/index.ts</title>
<path fill="none" stroke="#000000" stroke-width="2" stroke-opacity="0.200000" d="M60.92,-131.76C85.89,-118.28 134.25,-92.79 176.75,-74 177.44,-73.69 178.15,-73.39 178.86,-73.08"/>
<polygon fill="#000000" fill-opacity="0.200000" stroke="#000000" stroke-width="2" stroke-opacity="0.200000" points="185.26,-72.69 178.92,-73.06 183.65,-68.82 185.26,-72.69"/>
</g>
<!-- src/vectorTile.ts -->
<g id="node11" class="node">
<title>src/vectorTile.ts</title>
<g id="a_node11"><a xlink:href="src/vectorTile.ts" xlink:title="vectorTile.ts">
<path fill="#ddfeff" stroke="black" d="M151.96,-149.88C151.96,-149.88 99.79,-149.88 99.79,-149.88 96.83,-149.88 93.88,-146.92 93.88,-143.96 93.88,-143.96 93.88,-138.04 93.88,-138.04 93.88,-135.08 96.83,-132.12 99.79,-132.12 99.79,-132.12 151.96,-132.12 151.96,-132.12 154.92,-132.12 157.88,-135.08 157.88,-138.04 157.88,-138.04 157.88,-143.96 157.88,-143.96 157.88,-146.92 154.92,-149.88 151.96,-149.88"/>
<text text-anchor="start" x="101.88" y="-137.32" font-family="Helvetica,sans-Serif" font-size="9.00">vectorTile.ts</text>
</a>
</g>
</g>
<!-- src/index.ts&#45;&gt;src/vectorTile.ts -->
<g id="edge11" class="edge">
<title>src/index.ts&#45;&gt;src/vectorTile.ts</title>
<path fill="none" stroke="#000000" stroke-width="2" stroke-opacity="0.200000" d="M70.48,-141C75.66,-141 81.2,-141 86.67,-141"/>
<polygon fill="#000000" fill-opacity="0.200000" stroke="#000000" stroke-width="2" stroke-opacity="0.200000" points="92.55,-143.1 86.55,-141 92.55,-138.9 92.55,-143.1"/>
</g>
<!-- src/vectorTile.spec.ts -->
<g id="node12" class="node">
<title>src/vectorTile.spec.ts</title>
<g id="a_node12"><a xlink:href="src/vectorTile.spec.ts" xlink:title="vectorTile.spec.ts">
<path fill="#ddfeff" stroke="black" d="M162.83,-179.88C162.83,-179.88 88.92,-179.88 88.92,-179.88 85.96,-179.88 83,-176.92 83,-173.96 83,-173.96 83,-168.04 83,-168.04 83,-165.08 85.96,-162.12 88.92,-162.12 88.92,-162.12 162.83,-162.12 162.83,-162.12 165.79,-162.12 168.75,-165.08 168.75,-168.04 168.75,-168.04 168.75,-173.96 168.75,-173.96 168.75,-176.92 165.79,-179.88 162.83,-179.88"/>
<text text-anchor="start" x="91" y="-167.32" font-family="Helvetica,sans-Serif" font-size="9.00">vectorTile.spec.ts</text>
</a>
</g>
</g>
<!-- src/index.ts&#45;&gt;src/vectorTile.spec.ts -->
<g id="edge12" class="edge">
<title>src/index.ts&#45;&gt;src/vectorTile.spec.ts</title>
<g id="a_edge12"><a xlink:title="not&#45;to&#45;spec">
<path fill="none" stroke="orange" stroke-width="2" d="M67.89,-150.29C72.88,-152.2 78.1,-154.18 83,-156 86.01,-157.12 89.14,-158.27 92.29,-159.41"/>
<polygon fill="orange" stroke="orange" stroke-width="2" points="97.05,-163.37 92.12,-159.35 98.48,-159.42 97.05,-163.37"/>
</a>
</g>
<text text-anchor="middle" x="106.44" y="-152.53" font-family="Helvetica,sans-Serif" font-size="9.00" fill="orange">not&#45;to&#45;spec</text>
</g>
<!-- src/vectorTile.ts&#45;&gt;src/baseVectorTile/index.ts -->
<g id="edge34" class="edge">
<title>src/vectorTile.ts&#45;&gt;src/baseVectorTile/index.ts</title>
<path fill="none" stroke="#000000" stroke-width="2" stroke-opacity="0.200000" d="M136.95,-131.72C146.19,-122.78 159.78,-108.5 168.75,-94 173.79,-85.86 169.93,-80.72 176.75,-74 176.89,-73.86 177.03,-73.72 177.18,-73.59"/>
<polygon fill="#000000" fill-opacity="0.200000" stroke="#000000" stroke-width="2" stroke-opacity="0.200000" points="178.35,-75.33 182.04,-70.15 175.93,-71.9 178.35,-75.33"/>
</g>
<!-- src/mapboxVectorTile/index.ts -->
<g id="node13" class="node">
<title>src/mapboxVectorTile/index.ts</title>
<g id="a_node13"><a xlink:href="src/mapboxVectorTile/index.ts" xlink:title="index.ts">
<path fill="#ddfeff" stroke="black" d="M232.83,-246.88C232.83,-246.88 190.67,-246.88 190.67,-246.88 187.71,-246.88 184.75,-243.92 184.75,-240.96 184.75,-240.96 184.75,-235.04 184.75,-235.04 184.75,-232.08 187.71,-229.12 190.67,-229.12 190.67,-229.12 232.83,-229.12 232.83,-229.12 235.79,-229.12 238.75,-232.08 238.75,-235.04 238.75,-235.04 238.75,-240.96 238.75,-240.96 238.75,-243.92 235.79,-246.88 232.83,-246.88"/>
<text text-anchor="start" x="196" y="-234.32" font-family="Helvetica,sans-Serif" font-size="9.00">index.ts</text>
</a>
</g>
</g>
<!-- src/vectorTile.ts&#45;&gt;src/mapboxVectorTile/index.ts -->
<g id="edge35" class="edge">
<title>src/vectorTile.ts&#45;&gt;src/mapboxVectorTile/index.ts</title>
<path fill="none" stroke="#000000" stroke-width="2" stroke-opacity="0.200000" d="M158.28,-147.74C162.29,-149.8 165.96,-152.49 168.75,-156 187.95,-180.18 157.81,-200.62 176.75,-225 177.01,-225.34 177.28,-225.66 177.56,-225.98"/>
<polygon fill="#000000" fill-opacity="0.200000" stroke="#000000" stroke-width="2" stroke-opacity="0.200000" points="176.18,-227.57 182.19,-229.65 178.79,-224.27 176.18,-227.57"/>
</g>
<!-- src/pbf.ts -->
<g id="node17" class="node">
<title>src/pbf.ts</title>
<g id="a_node17"><a xlink:href="src/pbf.ts" xlink:title="pbf.ts">
<path fill="#ddfeff" stroke="black" d="M632.58,-275.88C632.58,-275.88 590.42,-275.88 590.42,-275.88 587.46,-275.88 584.5,-272.92 584.5,-269.96 584.5,-269.96 584.5,-264.04 584.5,-264.04 584.5,-261.08 587.46,-258.12 590.42,-258.12 590.42,-258.12 632.58,-258.12 632.58,-258.12 635.54,-258.12 638.5,-261.08 638.5,-264.04 638.5,-264.04 638.5,-269.96 638.5,-269.96 638.5,-272.92 635.54,-275.88 632.58,-275.88"/>
<text text-anchor="start" x="600.62" y="-263.32" font-family="Helvetica,sans-Serif" font-size="9.00">pbf.ts</text>
</a>
</g>
</g>
<!-- src/vectorTile.ts&#45;&gt;src/pbf.ts -->
<g id="edge37" class="edge">
<title>src/vectorTile.ts&#45;&gt;src/pbf.ts</title>
<path fill="none" stroke="#000000" stroke-width="2" stroke-opacity="0.200000" d="M158.06,-147.38C162.21,-149.49 165.98,-152.28 168.75,-156 178.65,-169.3 165.01,-293.29 176.75,-305 213.45,-341.62 241.4,-311 293.25,-311 293.25,-311 293.25,-311 397.75,-311 461.66,-311 534.18,-291.72 575.9,-278.69"/>
<polygon fill="#000000" fill-opacity="0.200000" stroke="#000000" stroke-width="2" stroke-opacity="0.200000" points="576.36,-280.75 581.44,-276.93 575.09,-276.74 576.36,-280.75"/>
</g>
<!-- src/openVectorTile/index.ts -->
<g id="node18" class="node">
<title>src/openVectorTile/index.ts</title>
<g id="a_node18"><a xlink:href="src/openVectorTile/index.ts" xlink:title="index.ts">
<path fill="#ddfeff" stroke="black" d="M315.33,-149.88C315.33,-149.88 273.17,-149.88 273.17,-149.88 270.21,-149.88 267.25,-146.92 267.25,-143.96 267.25,-143.96 267.25,-138.04 267.25,-138.04 267.25,-135.08 270.21,-132.12 273.17,-132.12 273.17,-132.12 315.33,-132.12 315.33,-132.12 318.29,-132.12 321.25,-135.08 321.25,-138.04 321.25,-138.04 321.25,-143.96 321.25,-143.96 321.25,-146.92 318.29,-149.88 315.33,-149.88"/>
<text text-anchor="start" x="278.5" y="-137.32" font-family="Helvetica,sans-Serif" font-size="9.00">index.ts</text>
</a>
</g>
</g>
<!-- src/vectorTile.ts&#45;&gt;src/openVectorTile/index.ts -->
<g id="edge36" class="edge">
<title>src/vectorTile.ts&#45;&gt;src/openVectorTile/index.ts</title>
<path fill="none" stroke="#000000" stroke-width="2" stroke-opacity="0.200000" d="M158.17,-141C186.58,-141 228.42,-141 258,-141"/>
<polygon fill="#000000" fill-opacity="0.200000" stroke="#000000" stroke-width="2" stroke-opacity="0.200000" points="257.73,-143.1 263.73,-141 257.73,-138.9 257.73,-143.1"/>
</g>
<!-- src/mapboxVectorTile/index.ts&#45;&gt;src/mapboxVectorTile/vectorLayer.ts -->
<g id="edge15" class="edge">
<title>src/mapboxVectorTile/index.ts&#45;&gt;src/mapboxVectorTile/vectorLayer.ts</title>
<path fill="none" stroke="#000000" stroke-width="2" stroke-opacity="0.200000" d="M239.11,-233.09C242.78,-232.4 246.62,-231.69 250.5,-230.97"/>
<polygon fill="#000000" fill-opacity="0.200000" stroke="#000000" stroke-width="2" stroke-opacity="0.200000" points="256.87,-231.91 250.59,-230.95 256.1,-227.79 256.87,-231.91"/>
</g>
<!-- src/mapboxVectorTile/serializeS2.ts -->
<g id="node14" class="node">
<title>src/mapboxVectorTile/serializeS2.ts</title>
<g id="a_node14"><a xlink:href="src/mapboxVectorTile/serializeS2.ts" xlink:title="serializeS2.ts">
<path fill="#ddfeff" stroke="black" d="M323.71,-261.88C323.71,-261.88 264.79,-261.88 264.79,-261.88 261.83,-261.88 258.88,-258.92 258.88,-255.96 258.88,-255.96 258.88,-250.04 258.88,-250.04 258.88,-247.08 261.83,-244.12 264.79,-244.12 264.79,-244.12 323.71,-244.12 323.71,-244.12 326.67,-244.12 329.62,-247.08 329.62,-250.04 329.62,-250.04 329.62,-255.96 329.62,-255.96 329.62,-258.92 326.67,-261.88 323.71,-261.88"/>
<text text-anchor="start" x="266.88" y="-249.32" font-family="Helvetica,sans-Serif" font-size="9.00">serializeS2.ts</text>
</a>
</g>
</g>
<!-- src/mapboxVectorTile/index.ts&#45;&gt;src/mapboxVectorTile/serializeS2.ts -->
<g id="edge13" class="edge">
<title>src/mapboxVectorTile/index.ts&#45;&gt;src/mapboxVectorTile/serializeS2.ts</title>
<path fill="none" stroke="#000000" stroke-width="2" stroke-opacity="0.200000" d="M239.11,-242.91C243.2,-243.67 247.51,-244.48 251.84,-245.28"/>
<polygon fill="#000000" fill-opacity="0.200000" stroke="#000000" stroke-width="2" stroke-opacity="0.200000" points="257.26,-248.43 251.75,-245.27 258.03,-244.3 257.26,-248.43"/>
</g>
<!-- src/mapboxVectorTile/index.ts&#45;&gt;src/mapboxVectorTile/vectorFeature.ts -->
<g id="edge14" class="edge">
<title>src/mapboxVectorTile/index.ts&#45;&gt;src/mapboxVectorTile/vectorFeature.ts</title>
<path fill="none" stroke="#000000" stroke-width="2" stroke-opacity="0.200000" d="M233.46,-247.23C235.32,-248.39 237.12,-249.65 238.75,-251 246.08,-257.06 243.22,-263.79 251.75,-268 268.68,-276.37 321.08,-278.55 336.75,-268 349.48,-259.43 338.31,-246.24 349.75,-236 349.87,-235.9 349.98,-235.79 350.1,-235.69"/>
<polygon fill="#000000" fill-opacity="0.200000" stroke="#000000" stroke-width="2" stroke-opacity="0.200000" points="356.23,-233.92 350.12,-235.67 353.8,-230.49 356.23,-233.92"/>
</g>
<!-- src/mapboxVectorTile/serializeS2.ts&#45;&gt;src/util.ts -->
<g id="edge19" class="edge">
<title>src/mapboxVectorTile/serializeS2.ts&#45;&gt;src/util.ts</title>
<path fill="none" stroke="#000000" stroke-width="2" stroke-opacity="0.200000" d="M330.06,-250.88C371.99,-248.51 444.56,-245 506.88,-245 506.88,-245 506.88,-245 612.5,-245 677.09,-245 694.8,-232.83 751,-201 757.84,-197.13 764.52,-191.71 770.12,-186.55"/>
<polygon fill="#000000" fill-opacity="0.200000" stroke="#000000" stroke-width="2" stroke-opacity="0.200000" points="771.56,-188.07 774.39,-182.38 768.63,-185.06 771.56,-188.07"/>
</g>
<!-- src/mapboxVectorTile/serializeS2.ts&#45;&gt;src/baseVectorTile/index.ts -->
<g id="edge16" class="edge">
<title>src/mapboxVectorTile/serializeS2.ts&#45;&gt;src/baseVectorTile/index.ts</title>
<path fill="none" stroke="#000000" stroke-width="2" stroke-opacity="0.200000" d="M258.4,-243.65C255.94,-242.06 253.67,-240.19 251.75,-238 241.21,-225.99 222.83,-121.55 215.7,-78.97"/>
<polygon fill="#000000" fill-opacity="0.200000" stroke="#000000" stroke-width="2" stroke-opacity="0.200000" points="217.8,-78.77 214.74,-73.2 213.65,-79.46 217.8,-78.77"/>
</g>
<!-- src/openVectorTile/vectorLayer.ts -->
<g id="node16" class="node">
<title>src/openVectorTile/vectorLayer.ts</title>
<g id="a_node16"><a xlink:href="src/openVectorTile/vectorLayer.ts" xlink:title="vectorLayer.ts">
<path fill="#ddfeff" stroke="black" d="M427.33,-171.88C427.33,-171.88 366.17,-171.88 366.17,-171.88 363.21,-171.88 360.25,-168.92 360.25,-165.96 360.25,-165.96 360.25,-160.04 360.25,-160.04 360.25,-157.08 363.21,-154.12 366.17,-154.12 366.17,-154.12 427.33,-154.12 427.33,-154.12 430.29,-154.12 433.25,-157.08 433.25,-160.04 433.25,-160.04 433.25,-165.96 433.25,-165.96 433.25,-168.92 430.29,-171.88 427.33,-171.88"/>
<text text-anchor="start" x="368.25" y="-159.32" font-family="Helvetica,sans-Serif" font-size="9.00">vectorLayer.ts</text>
</a>
</g>
</g>
<!-- src/mapboxVectorTile/serializeS2.ts&#45;&gt;src/openVectorTile/vectorLayer.ts -->
<g id="edge17" class="edge">
<title>src/mapboxVectorTile/serializeS2.ts&#45;&gt;src/openVectorTile/vectorLayer.ts</title>
<path fill="none" stroke="#000000" stroke-width="2" stroke-opacity="0.200000" d="M328.97,-243.83C331.81,-242.19 334.46,-240.27 336.75,-238 348.54,-226.32 340.31,-216.65 349.75,-203 356.53,-193.21 366.23,-184.3 374.98,-177.39"/>
<polygon fill="#000000" fill-opacity="0.200000" stroke="#000000" stroke-width="2" stroke-opacity="0.200000" points="376.08,-179.19 379.6,-173.9 373.55,-175.83 376.08,-179.19"/>
</g>
<!-- src/mapboxVectorTile/serializeS2.ts&#45;&gt;src/pbf.ts -->
<g id="edge18" class="edge">
<title>src/mapboxVectorTile/serializeS2.ts&#45;&gt;src/pbf.ts</title>
<path fill="none" stroke="#000000" stroke-width="2" stroke-opacity="0.200000" d="M329.89,-254.54C390.29,-257.22 514.23,-262.72 575.14,-265.43"/>
<polygon fill="#000000" fill-opacity="0.200000" stroke="#000000" stroke-width="2" stroke-opacity="0.200000" points="574.89,-267.52 580.98,-265.69 575.07,-263.32 574.89,-267.52"/>
</g>
<!-- src/openVectorTile/vectorLayer.ts&#45;&gt;src/openVectorTile/columnCache.ts -->
<g id="edge30" class="edge">
<title>src/openVectorTile/vectorLayer.ts&#45;&gt;src/openVectorTile/columnCache.ts</title>
<path fill="none" stroke="#000000" stroke-width="2" stroke-opacity="0.200000" d="M433.63,-163.71C441.26,-163.83 449.27,-163.94 456.75,-164 505.75,-164.42 518.09,-167.01 567,-164 603.2,-161.77 612.06,-158.93 648,-154 649.27,-153.83 650.55,-153.65 651.85,-153.47"/>
<polygon fill="#000000" fill-opacity="0.200000" stroke="#000000" stroke-width="2" stroke-opacity="0.200000" points="651.87,-155.58 657.51,-152.66 651.27,-151.43 651.87,-155.58"/>
</g>
<!-- src/openVectorTile/vectorFeature.ts -->
<g id="node19" class="node">
<title>src/openVectorTile/vectorFeature.ts</title>
<g id="a_node19"><a xlink:href="src/openVectorTile/vectorFeature.ts" xlink:title="vectorFeature.ts">
<path fill="#ddfeff" stroke="black" d="M542.58,-157.88C542.58,-157.88 473.17,-157.88 473.17,-157.88 470.21,-157.88 467.25,-154.92 467.25,-151.96 467.25,-151.96 467.25,-146.04 467.25,-146.04 467.25,-143.08 470.21,-140.12 473.17,-140.12 473.17,-140.12 542.58,-140.12 542.58,-140.12 545.54,-140.12 548.5,-143.08 548.5,-146.04 548.5,-146.04 548.5,-151.96 548.5,-151.96 548.5,-154.92 545.54,-157.88 542.58,-157.88"/>
<text text-anchor="start" x="475.25" y="-145.32" font-family="Helvetica,sans-Serif" font-size="9.00">vectorFeature.ts</text>
</a>
</g>
</g>
<!-- src/openVectorTile/vectorLayer.ts&#45;&gt;src/openVectorTile/vectorFeature.ts -->
<g id="edge31" class="edge">
<title>src/openVectorTile/vectorLayer.ts&#45;&gt;src/openVectorTile/vectorFeature.ts</title>
<path fill="none" stroke="#000000" stroke-width="2" stroke-opacity="0.200000" d="M433.48,-158.42C441.33,-157.41 449.78,-156.33 458.04,-155.26"/>
<polygon fill="#000000" fill-opacity="0.200000" stroke="#000000" stroke-width="2" stroke-opacity="0.200000" points="458.22,-157.36 463.91,-154.51 457.69,-153.19 458.22,-157.36"/>
</g>
<!-- src/pbf.ts&#45;&gt;src/ieee754.ts -->
<g id="edge33" class="edge">
<title>src/pbf.ts&#45;&gt;src/ieee754.ts</title>
<path fill="none" stroke="#000000" stroke-width="2" stroke-opacity="0.200000" d="M638.57,-267C646.36,-267 655.06,-267 663.43,-267"/>
<polygon fill="#000000" fill-opacity="0.200000" stroke="#000000" stroke-width="2" stroke-opacity="0.200000" points="663.3,-269.1 669.3,-267 663.3,-264.9 663.3,-269.1"/>
</g>
<!-- src/openVectorTile/index.ts&#45;&gt;src/openVectorTile/columnCache.ts -->
<g id="edge22" class="edge">
<title>src/openVectorTile/index.ts&#45;&gt;src/openVectorTile/columnCache.ts</title>
<path fill="none" stroke="#000000" stroke-width="2" stroke-opacity="0.200000" d="M321.59,-136.49C393.02,-124.71 589.05,-95.58 648,-120 655.55,-123.13 654.03,-128.73 661,-133 661.28,-133.17 661.56,-133.34 661.85,-133.51"/>
<polygon fill="#000000" fill-opacity="0.200000" stroke="#000000" stroke-width="2" stroke-opacity="0.200000" points="666.26,-138.15 661.9,-133.53 668.19,-134.42 666.26,-138.15"/>
</g>
<!-- src/openVectorTile/index.ts&#45;&gt;src/openVectorTile/vectorLayer.ts -->
<g id="edge24" class="edge">
<title>src/openVectorTile/index.ts&#45;&gt;src/openVectorTile/vectorLayer.ts</title>
<path fill="none" stroke="#000000" stroke-width="2" stroke-opacity="0.200000" d="M321.66,-146.78C331.29,-148.89 342.45,-151.33 353.14,-153.67"/>
<polygon fill="#000000" fill-opacity="0.200000" stroke="#000000" stroke-width="2" stroke-opacity="0.200000" points="358.65,-157.03 353.24,-153.69 359.55,-152.93 358.65,-157.03"/>
</g>
<!-- src/openVectorTile/index.ts&#45;&gt;src/openVectorTile/vectorFeature.ts -->
<g id="edge23" class="edge">
<title>src/openVectorTile/index.ts&#45;&gt;src/openVectorTile/vectorFeature.ts</title>
<path fill="none" stroke="#000000" stroke-width="2" stroke-opacity="0.200000" d="M321.62,-142C356.16,-143.3 417.29,-145.61 459.84,-147.22"/>
<polygon fill="#000000" fill-opacity="0.200000" stroke="#000000" stroke-width="2" stroke-opacity="0.200000" points="465.69,-149.54 459.77,-147.22 465.85,-145.35 465.69,-149.54"/>
</g>
<!-- src/openVectorTile/vectorFeature.ts&#45;&gt;src/openVectorTile/columnCache.ts -->
<g id="edge27" class="edge">
<title>src/openVectorTile/vectorFeature.ts&#45;&gt;src/openVectorTile/columnCache.ts</title>
<path fill="none" stroke="#000000" stroke-width="2" stroke-opacity="0.200000" d="M548.77,-150.23C576.59,-150.86 614.57,-151.26 648,-150 649.27,-149.95 650.55,-149.9 651.85,-149.84"/>
<polygon fill="#000000" fill-opacity="0.200000" stroke="#000000" stroke-width="2" stroke-opacity="0.200000" points="651.61,-151.95 657.48,-149.53 651.38,-147.76 651.61,-151.95"/>
</g>
<!-- src/openVectorTile/vectorFeature.ts&#45;&gt;src/openVectorTile/vectorValue.ts -->
<g id="edge28" class="edge">
<title>src/openVectorTile/vectorFeature.ts&#45;&gt;src/openVectorTile/vectorValue.ts</title>
<path fill="none" stroke="#000000" stroke-width="2" stroke-opacity="0.200000" d="M548.75,-143.51C554.37,-142.73 560.18,-141.93 565.88,-141.15"/>
<polygon fill="#000000" fill-opacity="0.200000" stroke="#000000" stroke-width="2" stroke-opacity="0.200000" points="566.05,-143.24 571.71,-140.34 565.48,-139.08 566.05,-143.24"/>
</g>
<!-- src/openVectorTile/vectorFeature.ts&#45;&gt;src/util.ts -->
<g id="edge29" class="edge">
<title>src/openVectorTile/vectorFeature.ts&#45;&gt;src/util.ts</title>
<path fill="none" stroke="#000000" stroke-width="2" stroke-opacity="0.200000" d="M548.73,-152.18C602.83,-156.49 698.65,-164.12 750.07,-168.22"/>
<polygon fill="#000000" fill-opacity="0.200000" stroke="#000000" stroke-width="2" stroke-opacity="0.200000" points="749.67,-170.29 755.82,-168.67 750,-166.11 749.67,-170.29"/>
</g>
<!-- src/openVectorTile/vectorFeature.ts&#45;&gt;src/baseVectorTile/index.ts -->
<g id="edge25" class="edge">
<title>src/openVectorTile/vectorFeature.ts&#45;&gt;src/baseVectorTile/index.ts</title>
<path fill="none" stroke="#000000" stroke-width="2" stroke-opacity="0.200000" d="M470.65,-139.72C420.92,-126.73 328.86,-101.8 251.75,-76 249.22,-75.15 246.61,-74.24 243.99,-73.29"/>
<polygon fill="#000000" fill-opacity="0.200000" stroke="#000000" stroke-width="2" stroke-opacity="0.200000" points="244.92,-71.4 238.56,-71.28 243.46,-75.34 244.92,-71.4"/>
</g>
<!-- src/openVectorTile/vectorFeature.ts&#45;&gt;src/pbf.ts -->
<g id="edge26" class="edge">
<title>src/openVectorTile/vectorFeature.ts&#45;&gt;src/pbf.ts</title>
<path fill="none" stroke="#000000" stroke-width="2" stroke-opacity="0.200000" d="M548.9,-151.62C555.66,-153.72 562.07,-156.98 567,-162 579.4,-174.62 568.97,-184.37 575,-201 581.4,-218.66 591.88,-237.39 599.79,-250.37"/>
<polygon fill="#000000" fill-opacity="0.200000" stroke="#000000" stroke-width="2" stroke-opacity="0.200000" points="597.99,-251.45 602.95,-255.43 601.55,-249.23 597.99,-251.45"/>
</g>
</g>
</svg>
