<?xml version="1.0" encoding="UTF-8" standalone="no"?>
<!DOCTYPE svg PUBLIC "-//W3C//DTD SVG 1.1//EN"
 "http://www.w3.org/Graphics/SVG/1.1/DTD/svg11.dtd">
<!-- Generated by graphviz version 9.0.0 (20230911.1827)
 -->
<!-- Title: dependency&#45;cruiser output Pages: 1 -->
<svg width="828pt" height="414pt"
 viewBox="0.00 0.00 828.38 414.00" xmlns="http://www.w3.org/2000/svg" xmlns:xlink="http://www.w3.org/1999/xlink">
<g id="graph0" class="graph" transform="scale(1 1) rotate(0) translate(4 410)">
<title>dependency&#45;cruiser output</title>
<polygon fill="white" stroke="none" points="-4,4 -4,-410 824.38,-410 824.38,4 -4,4"/>
<g id="clust1" class="cluster">
<title>cluster_src</title>
<path fill="#ffffff" stroke="black" stroke-width="2" d="M20,-8C20,-8 800.38,-8 800.38,-8 806.38,-8 812.38,-14 812.38,-20 812.38,-20 812.38,-386 812.38,-386 812.38,-392 806.38,-398 800.38,-398 800.38,-398 20,-398 20,-398 14,-398 8,-392 8,-386 8,-386 8,-20 8,-20 8,-14 14,-8 20,-8"/>
<text text-anchor="middle" x="410.19" y="-385.45" font-family="Helvetica,sans-Serif" font-weight="bold" font-size="9.00">src</text>
</g>
<g id="clust2" class="cluster">
<title>cluster_src/base</title>
<path fill="#ffffff" stroke="black" stroke-width="2" d="M279.5,-130C279.5,-130 632.38,-130 632.38,-130 638.38,-130 644.38,-136 644.38,-142 644.38,-142 644.38,-198 644.38,-198 644.38,-204 638.38,-210 632.38,-210 632.38,-210 279.5,-210 279.5,-210 273.5,-210 267.5,-204 267.5,-198 267.5,-198 267.5,-142 267.5,-142 267.5,-136 273.5,-130 279.5,-130"/>
<text text-anchor="middle" x="455.94" y="-197.45" font-family="Helvetica,sans-Serif" font-weight="bold" font-size="9.00">base</text>
</g>
<g id="clust4" class="cluster">
<title>cluster_src/open</title>
<path fill="#ffffff" stroke="black" stroke-width="2" d="M258.75,-218C258.75,-218 730.38,-218 730.38,-218 736.38,-218 742.38,-224 742.38,-230 742.38,-230 742.38,-360 742.38,-360 742.38,-366 736.38,-372 730.38,-372 730.38,-372 258.75,-372 258.75,-372 252.75,-372 246.75,-366 246.75,-360 246.75,-360 246.75,-230 246.75,-230 246.75,-224 252.75,-218 258.75,-218"/>
<text text-anchor="middle" x="494.56" y="-359.45" font-family="Helvetica,sans-Serif" font-weight="bold" font-size="9.00">open</text>
</g>
<g id="clust3" class="cluster">
<title>cluster_src/mapbox</title>
<path fill="#ffffff" stroke="black" stroke-width="2" d="M188.75,-26C188.75,-26 440.88,-26 440.88,-26 446.88,-26 452.88,-32 452.88,-38 452.88,-38 452.88,-110 452.88,-110 452.88,-116 446.88,-122 440.88,-122 440.88,-122 188.75,-122 188.75,-122 182.75,-122 176.75,-116 176.75,-110 176.75,-110 176.75,-38 176.75,-38 176.75,-32 182.75,-26 188.75,-26"/>
<text text-anchor="middle" x="314.81" y="-109.45" font-family="Helvetica,sans-Serif" font-weight="bold" font-size="9.00">mapbox</text>
</g>
<!-- src/base/index.ts -->
<g id="node1" class="node">
<title>src/base/index.ts</title>
<g id="a_node1"><a xlink:href="src/base/index.ts" xlink:title="index.ts">
<path fill="#ddfeff" stroke="black" d="M323.58,-177.88C323.58,-177.88 281.42,-177.88 281.42,-177.88 278.46,-177.88 275.5,-174.92 275.5,-171.96 275.5,-171.96 275.5,-166.04 275.5,-166.04 275.5,-163.08 278.46,-160.12 281.42,-160.12 281.42,-160.12 323.58,-160.12 323.58,-160.12 326.54,-160.12 329.5,-163.08 329.5,-166.04 329.5,-166.04 329.5,-171.96 329.5,-171.96 329.5,-174.92 326.54,-177.88 323.58,-177.88"/>
<text text-anchor="start" x="286.75" y="-165.32" font-family="Helvetica,sans-Serif" font-size="9.00">index.ts</text>
</a>
</g>
</g>
<!-- src/base/vectorFeature.ts -->
<g id="node2" class="node">
<title>src/base/vectorFeature.ts</title>
<g id="a_node2"><a xlink:href="src/base/vectorFeature.ts" xlink:title="vectorFeature.ts">
<path fill="#ddfeff" stroke="black" d="M630.46,-183.88C630.46,-183.88 561.04,-183.88 561.04,-183.88 558.08,-183.88 555.12,-180.92 555.12,-177.96 555.12,-177.96 555.12,-172.04 555.12,-172.04 555.12,-169.08 558.08,-166.12 561.04,-166.12 561.04,-166.12 630.46,-166.12 630.46,-166.12 633.42,-166.12 636.38,-169.08 636.38,-172.04 636.38,-172.04 636.38,-177.96 636.38,-177.96 636.38,-180.92 633.42,-183.88 630.46,-183.88"/>
<text text-anchor="start" x="563.12" y="-171.32" font-family="Helvetica,sans-Serif" font-size="9.00">vectorFeature.ts</text>
</a>
</g>
</g>
<!-- src/base/index.ts&#45;&gt;src/base/vectorFeature.ts -->
<g id="edge1" class="edge">
<title>src/base/index.ts&#45;&gt;src/base/vectorFeature.ts</title>
<path fill="none" stroke="#000000" stroke-width="2" stroke-opacity="0.200000" d="M329.94,-170.54C361.2,-172.27 414.8,-174.98 460.88,-176 496.98,-176.8 506.02,-176.34 542.12,-176 544.05,-175.98 546.02,-175.96 548.01,-175.93"/>
<polygon fill="#000000" fill-opacity="0.200000" stroke="#000000" stroke-width="2" stroke-opacity="0.200000" points="553.84,-177.95 547.81,-175.94 553.78,-173.75 553.84,-177.95"/>
</g>
<!-- src/base/vectorLayer.ts -->
<g id="node3" class="node">
<title>src/base/vectorLayer.ts</title>
<g id="a_node3"><a xlink:href="src/base/vectorLayer.ts" xlink:title="vectorLayer.ts">
<path fill="#ddfeff" stroke="black" d="M532.08,-169.88C532.08,-169.88 470.92,-169.88 470.92,-169.88 467.96,-169.88 465,-166.92 465,-163.96 465,-163.96 465,-158.04 465,-158.04 465,-155.08 467.96,-152.12 470.92,-152.12 470.92,-152.12 532.08,-152.12 532.08,-152.12 535.04,-152.12 538,-155.08 538,-158.04 538,-158.04 538,-163.96 538,-163.96 538,-166.92 535.04,-169.88 532.08,-169.88"/>
<text text-anchor="start" x="473" y="-157.32" font-family="Helvetica,sans-Serif" font-size="9.00">vectorLayer.ts</text>
</a>
</g>
</g>
<!-- src/base/index.ts&#45;&gt;src/base/vectorLayer.ts -->
<g id="edge2" class="edge">
<title>src/base/index.ts&#45;&gt;src/base/vectorLayer.ts</title>
<path fill="none" stroke="#000000" stroke-width="2" stroke-opacity="0.200000" d="M329.66,-167.94C362.27,-166.61 418.47,-164.33 457.46,-162.75"/>
<polygon fill="#000000" fill-opacity="0.200000" stroke="#000000" stroke-width="2" stroke-opacity="0.200000" points="463.62,-164.6 457.54,-162.74 463.45,-160.4 463.62,-164.6"/>
</g>
<!-- src/base/vectorTile.ts -->
<g id="node4" class="node">
<title>src/base/vectorTile.ts</title>
<g id="a_node4"><a xlink:href="src/base/vectorTile.ts" xlink:title="vectorTile.ts">
<path fill="#ddfeff" stroke="black" d="M430.33,-155.88C430.33,-155.88 378.17,-155.88 378.17,-155.88 375.21,-155.88 372.25,-152.92 372.25,-149.96 372.25,-149.96 372.25,-144.04 372.25,-144.04 372.25,-141.08 375.21,-138.12 378.17,-138.12 378.17,-138.12 430.33,-138.12 430.33,-138.12 433.29,-138.12 436.25,-141.08 436.25,-144.04 436.25,-144.04 436.25,-149.96 436.25,-149.96 436.25,-152.92 433.29,-155.88 430.33,-155.88"/>
<text text-anchor="start" x="380.25" y="-143.32" font-family="Helvetica,sans-Serif" font-size="9.00">vectorTile.ts</text>
</a>
</g>
</g>
<!-- src/base/index.ts&#45;&gt;src/base/vectorTile.ts -->
<g id="edge3" class="edge">
<title>src/base/index.ts&#45;&gt;src/base/vectorTile.ts</title>
<path fill="none" stroke="#000000" stroke-width="2" stroke-opacity="0.200000" d="M329.97,-163.16C340.78,-160.78 353.48,-157.98 365.25,-155.38"/>
<polygon fill="#000000" fill-opacity="0.200000" stroke="#000000" stroke-width="2" stroke-opacity="0.200000" points="371.52,-156.15 365.21,-155.39 370.62,-152.05 371.52,-156.15"/>
</g>
<!-- src/open/columnCache.ts -->
<g id="node5" class="node">
<title>src/open/columnCache.ts</title>
<g id="a_node5"><a xlink:href="src/open/columnCache.ts" xlink:title="columnCache.ts">
<path fill="#ddfeff" stroke="black" d="M728.46,-250.88C728.46,-250.88 658.29,-250.88 658.29,-250.88 655.33,-250.88 652.38,-247.92 652.38,-244.96 652.38,-244.96 652.38,-239.04 652.38,-239.04 652.38,-236.08 655.33,-233.12 658.29,-233.12 658.29,-233.12 728.46,-233.12 728.46,-233.12 731.42,-233.12 734.38,-236.08 734.38,-239.04 734.38,-239.04 734.38,-244.96 734.38,-244.96 734.38,-247.92 731.42,-250.88 728.46,-250.88"/>
<text text-anchor="start" x="660.38" y="-238.32" font-family="Helvetica,sans-Serif" font-size="9.00">columnCache.ts</text>
</a>
</g>
</g>
<!-- src/base/vectorFeature.ts&#45;&gt;src/open/columnCache.ts -->
<g id="edge4" class="edge">
<title>src/base/vectorFeature.ts&#45;&gt;src/open/columnCache.ts</title>
<path fill="none" stroke="#000000" stroke-width="2" stroke-opacity="0.200000" d="M609.98,-184.11C620.2,-191.59 634.27,-202.9 644.38,-215 647.68,-218.95 647.49,-222.12 651.23,-226.65"/>
<polygon fill="#000000" fill-opacity="0.200000" stroke="#000000" stroke-width="2" stroke-opacity="0.200000" points="649.79,-228.18 655.63,-230.68 652.63,-225.08 649.79,-228.18"/>
</g>
<!-- src/open/shape.ts -->
<g id="node6" class="node">
<title>src/open/shape.ts</title>
<g id="a_node6"><a xlink:href="src/open/shape.ts" xlink:title="shape.ts">
<path fill="#ddfeff" stroke="black" d="M616.83,-257.88C616.83,-257.88 574.67,-257.88 574.67,-257.88 571.71,-257.88 568.75,-254.92 568.75,-251.96 568.75,-251.96 568.75,-246.04 568.75,-246.04 568.75,-243.08 571.71,-240.12 574.67,-240.12 574.67,-240.12 616.83,-240.12 616.83,-240.12 619.79,-240.12 622.75,-243.08 622.75,-246.04 622.75,-246.04 622.75,-251.96 622.75,-251.96 622.75,-254.92 619.79,-257.88 616.83,-257.88"/>
<text text-anchor="start" x="578.5" y="-245.32" font-family="Helvetica,sans-Serif" font-size="9.00">shape.ts</text>
</a>
</g>
</g>
<!-- src/base/vectorFeature.ts&#45;&gt;src/open/shape.ts -->
<g id="edge5" class="edge">
<title>src/base/vectorFeature.ts&#45;&gt;src/open/shape.ts</title>
<path fill="none" stroke="#000000" stroke-width="2" stroke-opacity="0.200000" d="M595.75,-184.25C595.75,-199.83 595.75,-215.41 595.75,-230.99"/>
<polygon fill="#000000" fill-opacity="0.200000" stroke="#000000" stroke-width="2" stroke-opacity="0.200000" points="593.65,-230.61 595.75,-236.61 597.85,-230.61 593.65,-230.61"/>
</g>
<!-- src/util.ts -->
<g id="node7" class="node">
<title>src/util.ts</title>
<g id="a_node7"><a xlink:href="src/util.ts" xlink:title="util.ts">
<path fill="#ddfeff" stroke="black" d="M798.46,-225.88C798.46,-225.88 756.29,-225.88 756.29,-225.88 753.33,-225.88 750.38,-222.92 750.38,-219.96 750.38,-219.96 750.38,-214.04 750.38,-214.04 750.38,-211.08 753.33,-208.12 756.29,-208.12 756.29,-208.12 798.46,-208.12 798.46,-208.12 801.42,-208.12 804.38,-211.08 804.38,-214.04 804.38,-214.04 804.38,-219.96 804.38,-219.96 804.38,-222.92 801.42,-225.88 798.46,-225.88"/>
<text text-anchor="start" x="766.88" y="-213.32" font-family="Helvetica,sans-Serif" font-size="9.00">util.ts</text>
</a>
</g>
</g>
<!-- src/base/vectorFeature.ts&#45;&gt;src/util.ts -->
<g id="edge6" class="edge">
<title>src/base/vectorFeature.ts&#45;&gt;src/util.ts</title>
<path fill="none" stroke="#000000" stroke-width="2" stroke-opacity="0.200000" d="M636.61,-184.32C668.03,-191.67 711.41,-201.81 741.47,-208.84"/>
<polygon fill="#000000" fill-opacity="0.200000" stroke="#000000" stroke-width="2" stroke-opacity="0.200000" points="740.69,-210.81 747.01,-210.13 741.65,-206.72 740.69,-210.81"/>
</g>
<!-- src/base/vectorLayer.ts&#45;&gt;src/base/vectorFeature.ts -->
<g id="edge8" class="edge">
<title>src/base/vectorLayer.ts&#45;&gt;src/base/vectorFeature.ts</title>
<path fill="none" stroke="#000000" stroke-width="2" stroke-opacity="0.200000" d="M538.43,-166.45C540.94,-166.83 543.5,-167.22 546.07,-167.61"/>
<polygon fill="#000000" fill-opacity="0.200000" stroke="#000000" stroke-width="2" stroke-opacity="0.200000" points="545.55,-169.66 551.8,-168.48 546.18,-165.5 545.55,-169.66"/>
</g>
<!-- src/base/vectorLayer.ts&#45;&gt;src/open/shape.ts -->
<g id="edge7" class="edge">
<title>src/base/vectorLayer.ts&#45;&gt;src/open/shape.ts</title>
<path fill="none" stroke="#000000" stroke-width="2" stroke-opacity="0.200000" d="M511.7,-170.32C522.12,-180.82 539.65,-198.34 555.12,-213 562.41,-219.9 570.6,-227.39 577.64,-233.74"/>
<polygon fill="#000000" fill-opacity="0.200000" stroke="#000000" stroke-width="2" stroke-opacity="0.200000" points="576.09,-235.17 581.96,-237.62 578.9,-232.05 576.09,-235.17"/>
</g>
<!-- src/base/vectorTile.ts&#45;&gt;src/base/vectorLayer.ts -->
<g id="edge10" class="edge">
<title>src/base/vectorTile.ts&#45;&gt;src/base/vectorLayer.ts</title>
<path fill="none" stroke="#000000" stroke-width="2" stroke-opacity="0.200000" d="M436.7,-151.62C442.89,-152.53 449.48,-153.5 456,-154.46"/>
<polygon fill="#000000" fill-opacity="0.200000" stroke="#000000" stroke-width="2" stroke-opacity="0.200000" points="455.56,-156.52 461.8,-155.31 456.17,-152.36 455.56,-156.52"/>
</g>
<!-- src/mapbox/vectorLayer.ts -->
<g id="node8" class="node">
<title>src/mapbox/vectorLayer.ts</title>
<g id="a_node8"><a xlink:href="src/mapbox/vectorLayer.ts" xlink:title="vectorLayer.ts">
<path fill="#ddfeff" stroke="black" d="M333.08,-65.88C333.08,-65.88 271.92,-65.88 271.92,-65.88 268.96,-65.88 266,-62.92 266,-59.96 266,-59.96 266,-54.04 266,-54.04 266,-51.08 268.96,-48.12 271.92,-48.12 271.92,-48.12 333.08,-48.12 333.08,-48.12 336.04,-48.12 339,-51.08 339,-54.04 339,-54.04 339,-59.96 339,-59.96 339,-62.92 336.04,-65.88 333.08,-65.88"/>
<text text-anchor="start" x="274" y="-53.33" font-family="Helvetica,sans-Serif" font-size="9.00">vectorLayer.ts</text>
</a>
</g>
</g>
<!-- src/base/vectorTile.ts&#45;&gt;src/mapbox/vectorLayer.ts -->
<g id="edge9" class="edge">
<title>src/base/vectorTile.ts&#45;&gt;src/mapbox/vectorLayer.ts</title>
<path fill="none" stroke="#000000" stroke-width="2" stroke-opacity="0.200000" d="M378.83,-137.71C373,-134.47 367.3,-130.28 363.25,-125 348.49,-105.75 366.79,-89.74 350.25,-72 349.21,-70.89 348.09,-69.85 346.9,-68.9"/>
<polygon fill="#000000" fill-opacity="0.200000" stroke="#000000" stroke-width="2" stroke-opacity="0.200000" points="348.24,-67.26 342.05,-65.83 346,-70.81 348.24,-67.26"/>
</g>
<!-- src/open/columnCache.ts&#45;&gt;src/util.ts -->
<g id="edge25" class="edge">
<title>src/open/columnCache.ts&#45;&gt;src/util.ts</title>
<path fill="none" stroke="#000000" stroke-width="2" stroke-opacity="0.200000" d="M730.11,-232.64C733.09,-231.79 736.08,-230.92 741.99,-229.06"/>
<polygon fill="#000000" fill-opacity="0.200000" stroke="#000000" stroke-width="2" stroke-opacity="0.200000" points="742.49,-231.11 747.57,-227.29 741.21,-227.11 742.49,-231.11"/>
</g>
<!-- src/open/shape.ts&#45;&gt;src/open/columnCache.ts -->
<g id="edge33" class="edge">
<title>src/open/shape.ts&#45;&gt;src/open/columnCache.ts</title>
<path fill="none" stroke="#000000" stroke-width="2" stroke-opacity="0.200000" d="M623.13,-247.07C629.43,-246.61 636.35,-246.1 643.31,-245.59"/>
<polygon fill="#000000" fill-opacity="0.200000" stroke="#000000" stroke-width="2" stroke-opacity="0.200000" points="643.25,-247.7 649.08,-245.17 642.94,-243.51 643.25,-247.7"/>
</g>
<!-- src/mapbox/vectorFeature.ts -->
<g id="node15" class="node">
<title>src/mapbox/vectorFeature.ts</title>
<g id="a_node15"><a xlink:href="src/mapbox/vectorFeature.ts" xlink:title="vectorFeature.ts">
<path fill="#ddfeff" stroke="black" d="M438.96,-80.88C438.96,-80.88 369.54,-80.88 369.54,-80.88 366.58,-80.88 363.62,-77.92 363.62,-74.96 363.62,-74.96 363.62,-69.04 363.62,-69.04 363.62,-66.08 366.58,-63.12 369.54,-63.12 369.54,-63.12 438.96,-63.12 438.96,-63.12 441.92,-63.12 444.88,-66.08 444.88,-69.04 444.88,-69.04 444.88,-74.96 444.88,-74.96 444.88,-77.92 441.92,-80.88 438.96,-80.88"/>
<text text-anchor="start" x="371.62" y="-68.33" font-family="Helvetica,sans-Serif" font-size="9.00">vectorFeature.ts</text>
</a>
</g>
</g>
<!-- src/mapbox/vectorLayer.ts&#45;&gt;src/mapbox/vectorFeature.ts -->
<g id="edge21" class="edge">
<title>src/mapbox/vectorLayer.ts&#45;&gt;src/mapbox/vectorFeature.ts</title>
<path fill="none" stroke="#000000" stroke-width="2" stroke-opacity="0.200000" d="M339.23,-62.37C344.24,-63.13 349.47,-63.91 354.67,-64.69"/>
<polygon fill="#000000" fill-opacity="0.200000" stroke="#000000" stroke-width="2" stroke-opacity="0.200000" points="354.13,-66.74 360.37,-65.55 354.75,-62.58 354.13,-66.74"/>
</g>
<!-- src/index.ts -->
<g id="node9" class="node">
<title>src/index.ts</title>
<g id="a_node9"><a xlink:href="src/index.ts" xlink:title="index.ts">
<path fill="#ddfeff" stroke="black" d="M64.08,-191.88C64.08,-191.88 21.92,-191.88 21.92,-191.88 18.96,-191.88 16,-188.92 16,-185.96 16,-185.96 16,-180.04 16,-180.04 16,-177.08 18.96,-174.12 21.92,-174.12 21.92,-174.12 64.08,-174.12 64.08,-174.12 67.04,-174.12 70,-177.08 70,-180.04 70,-180.04 70,-185.96 70,-185.96 70,-188.92 67.04,-191.88 64.08,-191.88"/>
<text text-anchor="start" x="27.25" y="-179.32" font-family="Helvetica,sans-Serif" font-size="9.00">index.ts</text>
</a>
</g>
</g>
<!-- src/index.ts&#45;&gt;src/base/index.ts -->
<g id="edge11" class="edge">
<title>src/index.ts&#45;&gt;src/base/index.ts</title>
<path fill="none" stroke="#000000" stroke-width="2" stroke-opacity="0.200000" d="M70.11,-181.58C117.24,-179.02 216.47,-173.62 268.33,-170.8"/>
<polygon fill="#000000" fill-opacity="0.200000" stroke="#000000" stroke-width="2" stroke-opacity="0.200000" points="274.44,-172.57 268.33,-170.8 274.21,-168.38 274.44,-172.57"/>
</g>
<!-- src/index.ts&#45;&gt;src/util.ts -->
<g id="edge15" class="edge">
<title>src/index.ts&#45;&gt;src/util.ts</title>
<path fill="none" stroke="#000000" stroke-width="2" stroke-opacity="0.200000" d="M46.65,-173.81C51.73,-157.36 64.01,-122.31 83,-98 124.38,-45.02 143.52,-17 210.75,-17 210.75,-17 210.75,-17 596.75,-17 664.76,-17 696.59,-13.71 742.38,-64 760.68,-84.1 771.12,-166.01 774.82,-201.02"/>
<polygon fill="#000000" fill-opacity="0.200000" stroke="#000000" stroke-width="2" stroke-opacity="0.200000" points="773.32,-206.95 774.8,-200.77 777.5,-206.53 773.32,-206.95"/>
</g>
<!-- src/mapbox/index.ts -->
<g id="node10" class="node">
<title>src/mapbox/index.ts</title>
<g id="a_node10"><a xlink:href="src/mapbox/index.ts" xlink:title="index.ts">
<path fill="#ddfeff" stroke="black" d="M232.83,-95.88C232.83,-95.88 190.67,-95.88 190.67,-95.88 187.71,-95.88 184.75,-92.92 184.75,-89.96 184.75,-89.96 184.75,-84.04 184.75,-84.04 184.75,-81.08 187.71,-78.12 190.67,-78.12 190.67,-78.12 232.83,-78.12 232.83,-78.12 235.79,-78.12 238.75,-81.08 238.75,-84.04 238.75,-84.04 238.75,-89.96 238.75,-89.96 238.75,-92.92 235.79,-95.88 232.83,-95.88"/>
<text text-anchor="start" x="196" y="-83.33" font-family="Helvetica,sans-Serif" font-size="9.00">index.ts</text>
</a>
</g>
</g>
<!-- src/index.ts&#45;&gt;src/mapbox/index.ts -->
<g id="edge12" class="edge">
<title>src/index.ts&#45;&gt;src/mapbox/index.ts</title>
<path fill="none" stroke="#000000" stroke-width="2" stroke-opacity="0.200000" d="M51.26,-173.78C58.55,-165 70.48,-151.83 83,-143 112.47,-122.23 150.87,-106.67 177.85,-97.3"/>
<polygon fill="#000000" fill-opacity="0.200000" stroke="#000000" stroke-width="2" stroke-opacity="0.200000" points="184.18,-97.36 177.82,-97.31 182.82,-93.38 184.18,-97.36"/>
</g>
<!-- src/open/index.ts -->
<g id="node11" class="node">
<title>src/open/index.ts</title>
<g id="a_node11"><a xlink:href="src/open/index.ts" xlink:title="index.ts">
<path fill="#ddfeff" stroke="black" d="M323.58,-265.88C323.58,-265.88 281.42,-265.88 281.42,-265.88 278.46,-265.88 275.5,-262.92 275.5,-259.96 275.5,-259.96 275.5,-254.04 275.5,-254.04 275.5,-251.08 278.46,-248.12 281.42,-248.12 281.42,-248.12 323.58,-248.12 323.58,-248.12 326.54,-248.12 329.5,-251.08 329.5,-254.04 329.5,-254.04 329.5,-259.96 329.5,-259.96 329.5,-262.92 326.54,-265.88 323.58,-265.88"/>
<text text-anchor="start" x="286.75" y="-253.32" font-family="Helvetica,sans-Serif" font-size="9.00">index.ts</text>
</a>
</g>
</g>
<!-- src/index.ts&#45;&gt;src/open/index.ts -->
<g id="edge13" class="edge">
<title>src/index.ts&#45;&gt;src/open/index.ts</title>
<path fill="none" stroke="#000000" stroke-width="2" stroke-opacity="0.200000" d="M70.21,-184.46C116.09,-187.32 208.91,-194.47 238.75,-207 240.1,-207.57 266.59,-228.84 284.72,-243.45"/>
<polygon fill="#000000" fill-opacity="0.200000" stroke="#000000" stroke-width="2" stroke-opacity="0.200000" points="287.94,-248.75 284.59,-243.34 290.58,-245.48 287.94,-248.75"/>
</g>
<!-- src/open/shape.schema.json -->
<g id="node12" class="node">
<title>src/open/shape.schema.json</title>
<g id="a_node12"><a xlink:href="src/open/shape.schema.json" xlink:title="shape.schema.json">
<path fill="#ffee44" stroke="black" d="M344.33,-295.88C344.33,-295.88 260.67,-295.88 260.67,-295.88 257.71,-295.88 254.75,-292.92 254.75,-289.96 254.75,-289.96 254.75,-284.04 254.75,-284.04 254.75,-281.08 257.71,-278.12 260.67,-278.12 260.67,-278.12 344.33,-278.12 344.33,-278.12 347.29,-278.12 350.25,-281.08 350.25,-284.04 350.25,-284.04 350.25,-289.96 350.25,-289.96 350.25,-292.92 347.29,-295.88 344.33,-295.88"/>
<text text-anchor="start" x="262.75" y="-283.32" font-family="Helvetica,sans-Serif" font-size="9.00">shape.schema.json</text>
</a>
</g>
</g>
<!-- src/index.ts&#45;&gt;src/open/shape.schema.json -->
<g id="edge14" class="edge">
<title>src/index.ts&#45;&gt;src/open/shape.schema.json</title>
<path fill="none" stroke="#000000" stroke-width="2" stroke-opacity="0.200000" d="M70.31,-189.88C104.19,-198.82 159.79,-213.79 168.75,-218 206.91,-235.94 208.54,-254.18 246.75,-272 248.74,-272.93 250.8,-273.81 252.91,-274.65"/>
<polygon fill="#000000" fill-opacity="0.200000" stroke="#000000" stroke-width="2" stroke-opacity="0.200000" points="251.96,-276.54 258.32,-276.61 253.39,-272.59 251.96,-276.54"/>
</g>
<!-- src/vectorTile.ts -->
<g id="node13" class="node">
<title>src/vectorTile.ts</title>
<g id="a_node13"><a xlink:href="src/vectorTile.ts" xlink:title="vectorTile.ts">
<path fill="#ddfeff" stroke="black" d="M151.96,-166.88C151.96,-166.88 99.79,-166.88 99.79,-166.88 96.83,-166.88 93.88,-163.92 93.88,-160.96 93.88,-160.96 93.88,-155.04 93.88,-155.04 93.88,-152.08 96.83,-149.12 99.79,-149.12 99.79,-149.12 151.96,-149.12 151.96,-149.12 154.92,-149.12 157.88,-152.08 157.88,-155.04 157.88,-155.04 157.88,-160.96 157.88,-160.96 157.88,-163.92 154.92,-166.88 151.96,-166.88"/>
<text text-anchor="start" x="101.88" y="-154.32" font-family="Helvetica,sans-Serif" font-size="9.00">vectorTile.ts</text>
</a>
</g>
</g>
<!-- src/index.ts&#45;&gt;src/vectorTile.ts -->
<g id="edge16" class="edge">
<title>src/index.ts&#45;&gt;src/vectorTile.ts</title>
<path fill="none" stroke="#000000" stroke-width="2" stroke-opacity="0.200000" d="M70.48,-174.81C76.04,-173.09 82.01,-171.25 87.88,-169.44"/>
<polygon fill="#000000" fill-opacity="0.200000" stroke="#000000" stroke-width="2" stroke-opacity="0.200000" points="94.35,-169.63 88,-169.4 93.11,-165.62 94.35,-169.63"/>
</g>
<!-- src/vectorTile.spec.ts -->
<g id="node14" class="node">
<title>src/vectorTile.spec.ts</title>
<g id="a_node14"><a xlink:href="src/vectorTile.spec.ts" xlink:title="vectorTile.spec.ts">
<path fill="#ddfeff" stroke="black" d="M162.83,-241.88C162.83,-241.88 88.92,-241.88 88.92,-241.88 85.96,-241.88 83,-238.92 83,-235.96 83,-235.96 83,-230.04 83,-230.04 83,-227.08 85.96,-224.12 88.92,-224.12 88.92,-224.12 162.83,-224.12 162.83,-224.12 165.79,-224.12 168.75,-227.08 168.75,-230.04 168.75,-230.04 168.75,-235.96 168.75,-235.96 168.75,-238.92 165.79,-241.88 162.83,-241.88"/>
<text text-anchor="start" x="91" y="-229.32" font-family="Helvetica,sans-Serif" font-size="9.00">vectorTile.spec.ts</text>
</a>
</g>
</g>
<!-- src/index.ts&#45;&gt;src/vectorTile.spec.ts -->
<g id="edge17" class="edge">
<title>src/index.ts&#45;&gt;src/vectorTile.spec.ts</title>
<g id="a_edge17"><a xlink:title="not&#45;to&#45;spec">
<path fill="none" stroke="orange" stroke-width="2" d="M53.68,-192.25C61.23,-199.14 72.23,-208.45 83,-215 86.3,-217 89.85,-218.9 93.46,-220.65"/>
<polygon fill="orange" stroke="orange" stroke-width="2" points="98.15,-225.13 93.59,-220.71 99.91,-221.32 98.15,-225.13"/>
</a>
</g>
<text text-anchor="middle" x="52.56" y="-201.45" font-family="Helvetica,sans-Serif" font-size="9.00" fill="orange">not&#45;to&#45;spec</text>
</g>
<!-- src/mapbox/index.ts&#45;&gt;src/mapbox/vectorLayer.ts -->
<g id="edge19" class="edge">
<title>src/mapbox/index.ts&#45;&gt;src/mapbox/vectorLayer.ts</title>
<path fill="none" stroke="#000000" stroke-width="2" stroke-opacity="0.200000" d="M232.33,-77.77C237,-75.74 242.01,-73.69 246.75,-72 250.62,-70.63 254.67,-69.3 258.76,-68.05"/>
<polygon fill="#000000" fill-opacity="0.200000" stroke="#000000" stroke-width="2" stroke-opacity="0.200000" points="265.27,-68.31 258.92,-68 264.07,-64.28 265.27,-68.31"/>
</g>
<!-- src/mapbox/index.ts&#45;&gt;src/mapbox/vectorFeature.ts -->
<g id="edge18" class="edge">
<title>src/mapbox/index.ts&#45;&gt;src/mapbox/vectorFeature.ts</title>
<path fill="none" stroke="#000000" stroke-width="2" stroke-opacity="0.200000" d="M234.83,-77.84C236.28,-76.69 237.61,-75.42 238.75,-74 247.92,-62.56 235.19,-51.02 246.75,-42 264.88,-27.85 329.63,-31.81 350.25,-42 357.44,-45.56 356.23,-51.3 364,-58.51"/>
<polygon fill="#000000" fill-opacity="0.200000" stroke="#000000" stroke-width="2" stroke-opacity="0.200000" points="367.27,-63.71 363.82,-58.37 369.85,-60.39 367.27,-63.71"/>
</g>
<!-- src/mapbox/writeMVTile.ts -->
<g id="node16" class="node">
<title>src/mapbox/writeMVTile.ts</title>
<g id="a_node16"><a xlink:href="src/mapbox/writeMVTile.ts" xlink:title="writeMVTile.ts">
<path fill="#ddfeff" stroke="black" d="M332.71,-95.88C332.71,-95.88 272.29,-95.88 272.29,-95.88 269.33,-95.88 266.38,-92.92 266.38,-89.96 266.38,-89.96 266.38,-84.04 266.38,-84.04 266.38,-81.08 269.33,-78.12 272.29,-78.12 272.29,-78.12 332.71,-78.12 332.71,-78.12 335.67,-78.12 338.62,-81.08 338.62,-84.04 338.62,-84.04 338.62,-89.96 338.62,-89.96 338.62,-92.92 335.67,-95.88 332.71,-95.88"/>
<text text-anchor="start" x="274.38" y="-83.33" font-family="Helvetica,sans-Serif" font-size="9.00">writeMVTile.ts</text>
</a>
</g>
</g>
<!-- src/mapbox/index.ts&#45;&gt;src/mapbox/writeMVTile.ts -->
<g id="edge20" class="edge">
<title>src/mapbox/index.ts&#45;&gt;src/mapbox/writeMVTile.ts</title>
<path fill="none" stroke="#000000" stroke-width="2" stroke-opacity="0.200000" d="M238.9,-87C245.26,-87 252.24,-87 259.14,-87"/>
<polygon fill="#000000" fill-opacity="0.200000" stroke="#000000" stroke-width="2" stroke-opacity="0.200000" points="265,-89.1 259,-87 265,-84.9 265,-89.1"/>
</g>
<!-- src/open/index.ts&#45;&gt;src/open/columnCache.ts -->
<g id="edge27" class="edge">
<title>src/open/index.ts&#45;&gt;src/open/columnCache.ts</title>
<path fill="none" stroke="#000000" stroke-width="2" stroke-opacity="0.200000" d="M329.98,-265.5C345.54,-270.47 362.34,-275.83 363.25,-276 441.38,-291 462.66,-286.88 542.12,-283 587.73,-280.78 607.35,-299.72 644.38,-273 650.14,-268.84 647.53,-263.43 652.48,-256.42"/>
<polygon fill="#000000" fill-opacity="0.200000" stroke="#000000" stroke-width="2" stroke-opacity="0.200000" points="658.16,-253.48 652.51,-256.39 655.11,-250.59 658.16,-253.48"/>
</g>
<!-- src/open/index.ts&#45;&gt;src/open/shape.ts -->
<g id="edge30" class="edge">
<title>src/open/index.ts&#45;&gt;src/open/shape.ts</title>
<path fill="none" stroke="#000000" stroke-width="2" stroke-opacity="0.200000" d="M329.77,-261.53C383.14,-270.36 502.55,-288.18 542.12,-278 554.22,-274.89 566.52,-268.34 576.18,-262.25"/>
<polygon fill="#000000" fill-opacity="0.200000" stroke="#000000" stroke-width="2" stroke-opacity="0.200000" points="582.44,-260.66 576.27,-262.2 580.13,-257.15 582.44,-260.66"/>
</g>
<!-- src/open/vectorLayer.ts -->
<g id="node17" class="node">
<title>src/open/vectorLayer.ts</title>
<g id="a_node17"><a xlink:href="src/open/vectorLayer.ts" xlink:title="vectorLayer.ts">
<path fill="#ddfeff" stroke="black" d="M434.83,-243.88C434.83,-243.88 373.67,-243.88 373.67,-243.88 370.71,-243.88 367.75,-240.92 367.75,-237.96 367.75,-237.96 367.75,-232.04 367.75,-232.04 367.75,-229.08 370.71,-226.12 373.67,-226.12 373.67,-226.12 434.83,-226.12 434.83,-226.12 437.79,-226.12 440.75,-229.08 440.75,-232.04 440.75,-232.04 440.75,-237.96 440.75,-237.96 440.75,-240.92 437.79,-243.88 434.83,-243.88"/>
<text text-anchor="start" x="375.75" y="-231.32" font-family="Helvetica,sans-Serif" font-size="9.00">vectorLayer.ts</text>
</a>
</g>
</g>
<!-- src/open/index.ts&#45;&gt;src/open/vectorLayer.ts -->
<g id="edge32" class="edge">
<title>src/open/index.ts&#45;&gt;src/open/vectorLayer.ts</title>
<path fill="none" stroke="#000000" stroke-width="2" stroke-opacity="0.200000" d="M329.97,-251.16C339.34,-249.09 350.15,-246.71 360.52,-244.42"/>
<polygon fill="#000000" fill-opacity="0.200000" stroke="#000000" stroke-width="2" stroke-opacity="0.200000" points="366.74,-245.2 360.43,-244.44 365.84,-241.1 366.74,-245.2"/>
</g>
<!-- src/open/elevationData.ts -->
<g id="node18" class="node">
<title>src/open/elevationData.ts</title>
<g id="a_node18"><a xlink:href="src/open/elevationData.ts" xlink:title="elevationData.ts">
<path fill="#ddfeff" stroke="black" d="M439.33,-315.88C439.33,-315.88 369.17,-315.88 369.17,-315.88 366.21,-315.88 363.25,-312.92 363.25,-309.96 363.25,-309.96 363.25,-304.04 363.25,-304.04 363.25,-301.08 366.21,-298.12 369.17,-298.12 369.17,-298.12 439.33,-298.12 439.33,-298.12 442.29,-298.12 445.25,-301.08 445.25,-304.04 445.25,-304.04 445.25,-309.96 445.25,-309.96 445.25,-312.92 442.29,-315.88 439.33,-315.88"/>
<text text-anchor="start" x="371.25" y="-303.32" font-family="Helvetica,sans-Serif" font-size="9.00">elevationData.ts</text>
</a>
</g>
</g>
<!-- src/open/index.ts&#45;&gt;src/open/elevationData.ts -->
<g id="edge28" class="edge">
<title>src/open/index.ts&#45;&gt;src/open/elevationData.ts</title>
<path fill="none" stroke="#000000" stroke-width="2" stroke-opacity="0.200000" d="M329.56,-262.32C336.68,-264.55 344.12,-267.68 350.25,-272 358.02,-277.48 355.8,-283.09 363.25,-289 365.8,-291.02 368.62,-292.87 371.53,-294.55"/>
<polygon fill="#000000" fill-opacity="0.200000" stroke="#000000" stroke-width="2" stroke-opacity="0.200000" points="375.76,-299.14 371.43,-294.49 377.71,-295.43 375.76,-299.14"/>
</g>
<!-- src/open/imageData.ts -->
<g id="node19" class="node">
<title>src/open/imageData.ts</title>
<g id="a_node19"><a xlink:href="src/open/imageData.ts" xlink:title="imageData.ts">
<path fill="#ddfeff" stroke="black" d="M433.33,-345.88C433.33,-345.88 375.17,-345.88 375.17,-345.88 372.21,-345.88 369.25,-342.92 369.25,-339.96 369.25,-339.96 369.25,-334.04 369.25,-334.04 369.25,-331.08 372.21,-328.12 375.17,-328.12 375.17,-328.12 433.33,-328.12 433.33,-328.12 436.29,-328.12 439.25,-331.08 439.25,-334.04 439.25,-334.04 439.25,-339.96 439.25,-339.96 439.25,-342.92 436.29,-345.88 433.33,-345.88"/>
<text text-anchor="start" x="377.25" y="-333.32" font-family="Helvetica,sans-Serif" font-size="9.00">imageData.ts</text>
</a>
</g>
</g>
<!-- src/open/index.ts&#45;&gt;src/open/imageData.ts -->
<g id="edge29" class="edge">
<title>src/open/index.ts&#45;&gt;src/open/imageData.ts</title>
<path fill="none" stroke="#000000" stroke-width="2" stroke-opacity="0.200000" d="M329.84,-260.56C337.31,-262.76 344.86,-266.3 350.25,-272 366.02,-288.68 347.88,-304.94 363.25,-322 363.75,-322.55 364.26,-323.08 364.8,-323.59"/>
<polygon fill="#000000" fill-opacity="0.200000" stroke="#000000" stroke-width="2" stroke-opacity="0.200000" points="368.04,-328.74 364.57,-323.42 370.61,-325.42 368.04,-328.74"/>
</g>
<!-- src/open/vectorFeature.ts -->
<g id="node20" class="node">
<title>src/open/vectorFeature.ts</title>
<g id="a_node20"><a xlink:href="src/open/vectorFeature.ts" xlink:title="vectorFeature.ts">
<path fill="#ddfeff" stroke="black" d="M536.21,-271.88C536.21,-271.88 466.79,-271.88 466.79,-271.88 463.83,-271.88 460.88,-268.92 460.88,-265.96 460.88,-265.96 460.88,-260.04 460.88,-260.04 460.88,-257.08 463.83,-254.12 466.79,-254.12 466.79,-254.12 536.21,-254.12 536.21,-254.12 539.17,-254.12 542.12,-257.08 542.12,-260.04 542.12,-260.04 542.12,-265.96 542.12,-265.96 542.12,-268.92 539.17,-271.88 536.21,-271.88"/>
<text text-anchor="start" x="468.88" y="-259.32" font-family="Helvetica,sans-Serif" font-size="9.00">vectorFeature.ts</text>
</a>
</g>
</g>
<!-- src/open/index.ts&#45;&gt;src/open/vectorFeature.ts -->
<g id="edge31" class="edge">
<title>src/open/index.ts&#45;&gt;src/open/vectorFeature.ts</title>
<path fill="none" stroke="#000000" stroke-width="2" stroke-opacity="0.200000" d="M329.66,-257.8C361.19,-258.76 414.76,-260.39 453.52,-261.57"/>
<polygon fill="#000000" fill-opacity="0.200000" stroke="#000000" stroke-width="2" stroke-opacity="0.200000" points="459.51,-263.85 453.58,-261.57 459.64,-259.65 459.51,-263.85"/>
</g>
<!-- src/vectorTile.ts&#45;&gt;src/base/index.ts -->
<g id="edge41" class="edge">
<title>src/vectorTile.ts&#45;&gt;src/base/index.ts</title>
<path fill="none" stroke="#000000" stroke-width="2" stroke-opacity="0.200000" d="M158.22,-159.95C180.65,-161.35 211.56,-163.28 238.75,-165 247.74,-165.57 257.45,-166.18 266.49,-166.76"/>
<polygon fill="#000000" fill-opacity="0.200000" stroke="#000000" stroke-width="2" stroke-opacity="0.200000" points="266.1,-168.84 272.22,-167.13 266.37,-164.65 266.1,-168.84"/>
</g>
<!-- src/vectorTile.ts&#45;&gt;src/mapbox/index.ts -->
<g id="edge42" class="edge">
<title>src/vectorTile.ts&#45;&gt;src/mapbox/index.ts</title>
<path fill="none" stroke="#000000" stroke-width="2" stroke-opacity="0.200000" d="M137.83,-148.81C146.9,-140.8 159.73,-128.54 168.75,-116 173.39,-109.55 170.86,-105.34 176.75,-100 176.89,-99.87 177.03,-99.75 177.18,-99.62"/>
<polygon fill="#000000" fill-opacity="0.200000" stroke="#000000" stroke-width="2" stroke-opacity="0.200000" points="178.05,-101.57 181.83,-96.46 175.69,-98.09 178.05,-101.57"/>
</g>
<!-- src/vectorTile.ts&#45;&gt;src/open/index.ts -->
<g id="edge43" class="edge">
<title>src/vectorTile.ts&#45;&gt;src/open/index.ts</title>
<path fill="none" stroke="#000000" stroke-width="2" stroke-opacity="0.200000" d="M158.32,-164.66C187.1,-171.31 226.95,-182.08 238.75,-193 245.78,-199.5 241.05,-205.3 246.75,-213 255.47,-224.79 268.08,-235.21 279,-242.95"/>
<polygon fill="#000000" fill-opacity="0.200000" stroke="#000000" stroke-width="2" stroke-opacity="0.200000" points="277.58,-244.52 283.72,-246.16 279.94,-241.05 277.58,-244.52"/>
</g>
<!-- src/mapbox/writeMVTile.ts&#45;&gt;src/base/index.ts -->
<g id="edge22" class="edge">
<title>src/mapbox/writeMVTile.ts&#45;&gt;src/base/index.ts</title>
<path fill="none" stroke="#000000" stroke-width="2" stroke-opacity="0.200000" d="M302.5,-96.29C302.5,-114.43 302.5,-132.58 302.5,-150.72"/>
<polygon fill="#000000" fill-opacity="0.200000" stroke="#000000" stroke-width="2" stroke-opacity="0.200000" points="300.4,-150.6 302.5,-156.6 304.6,-150.6 300.4,-150.6"/>
</g>
<!-- src/mapbox/writeMVTile.ts&#45;&gt;src/util.ts -->
<g id="edge24" class="edge">
<title>src/mapbox/writeMVTile.ts&#45;&gt;src/util.ts</title>
<path fill="none" stroke="#000000" stroke-width="2" stroke-opacity="0.200000" d="M338.69,-78.06C342.74,-76.35 346.69,-74.35 350.25,-72 357.61,-67.14 355.32,-60.87 363.25,-57 418.15,-30.22 439.42,-50 500.5,-50 500.5,-50 500.5,-50 596.75,-50 684.21,-50 746.95,-157.5 768.34,-200"/>
<polygon fill="#000000" fill-opacity="0.200000" stroke="#000000" stroke-width="2" stroke-opacity="0.200000" points="766.42,-200.84 770.94,-205.3 770.19,-198.99 766.42,-200.84"/>
</g>
<!-- src/mapbox/writeMVTile.ts&#45;&gt;src/open/vectorLayer.ts -->
<g id="edge23" class="edge">
<title>src/mapbox/writeMVTile.ts&#45;&gt;src/open/vectorLayer.ts</title>
<path fill="none" stroke="#000000" stroke-width="2" stroke-opacity="0.200000" d="M319.13,-96.14C329.69,-103.19 342.99,-113.92 350.25,-127 369,-160.8 341.14,-181.29 363.25,-213 365.34,-216 367.98,-218.63 370.89,-220.93"/>
<polygon fill="#000000" fill-opacity="0.200000" stroke="#000000" stroke-width="2" stroke-opacity="0.200000" points="369.41,-222.46 375.56,-224.04 371.73,-218.97 369.41,-222.46"/>
</g>
<!-- src/open/vectorLayer.ts&#45;&gt;src/open/columnCache.ts -->
<g id="edge38" class="edge">
<title>src/open/vectorLayer.ts&#45;&gt;src/open/columnCache.ts</title>
<path fill="none" stroke="#000000" stroke-width="2" stroke-opacity="0.200000" d="M440.98,-232.92C486.05,-230.73 566.16,-228.23 643.21,-234.08"/>
<polygon fill="#000000" fill-opacity="0.200000" stroke="#000000" stroke-width="2" stroke-opacity="0.200000" points="642.94,-236.16 649.09,-234.55 643.27,-231.98 642.94,-236.16"/>
</g>
<!-- src/open/vectorLayer.ts&#45;&gt;src/open/shape.ts -->
<g id="edge39" class="edge">
<title>src/open/vectorLayer.ts&#45;&gt;src/open/shape.ts</title>
<path fill="none" stroke="#000000" stroke-width="2" stroke-opacity="0.200000" d="M440.89,-237.63C474.95,-240.15 525.96,-243.92 559.78,-246.42"/>
<polygon fill="#000000" fill-opacity="0.200000" stroke="#000000" stroke-width="2" stroke-opacity="0.200000" points="559.26,-248.48 565.4,-246.83 559.57,-244.3 559.26,-248.48"/>
</g>
<!-- src/open/vectorLayer.ts&#45;&gt;src/open/vectorFeature.ts -->
<g id="edge40" class="edge">
<title>src/open/vectorLayer.ts&#45;&gt;src/open/vectorFeature.ts</title>
<path fill="none" stroke="#000000" stroke-width="2" stroke-opacity="0.200000" d="M436.97,-244.32C444.44,-246.52 452.5,-248.89 460.29,-251.18"/>
<polygon fill="#000000" fill-opacity="0.200000" stroke="#000000" stroke-width="2" stroke-opacity="0.200000" points="459.67,-253.19 466.02,-252.86 460.85,-249.16 459.67,-253.19"/>
</g>
<!-- src/open/elevationData.ts&#45;&gt;src/util.ts -->
<g id="edge26" class="edge">
<title>src/open/elevationData.ts&#45;&gt;src/util.ts</title>
<path fill="none" stroke="#000000" stroke-width="2" stroke-opacity="0.200000" d="M445.51,-313.75C512.7,-322.81 649.46,-331.62 742.38,-273 756.44,-264.12 765.53,-247.11 770.74,-234.16"/>
<polygon fill="#000000" fill-opacity="0.200000" stroke="#000000" stroke-width="2" stroke-opacity="0.200000" points="772.6,-235.19 772.7,-228.83 768.66,-233.74 772.6,-235.19"/>
</g>
<!-- src/open/vectorFeature.ts&#45;&gt;src/base/index.ts -->
<g id="edge34" class="edge">
<title>src/open/vectorFeature.ts&#45;&gt;src/base/index.ts</title>
<path fill="none" stroke="#000000" stroke-width="2" stroke-opacity="0.200000" d="M492.57,-253.92C483.74,-244.3 468.62,-229.26 452.88,-220 442.73,-214.03 378.94,-193.11 338.07,-179.99"/>
<polygon fill="#000000" fill-opacity="0.200000" stroke="#000000" stroke-width="2" stroke-opacity="0.200000" points="338.96,-178.07 332.61,-178.24 337.68,-182.07 338.96,-178.07"/>
</g>
<!-- src/open/vectorFeature.ts&#45;&gt;src/open/columnCache.ts -->
<g id="edge36" class="edge">
<title>src/open/vectorFeature.ts&#45;&gt;src/open/columnCache.ts</title>
<path fill="none" stroke="#000000" stroke-width="2" stroke-opacity="0.200000" d="M542.55,-271.89C572.02,-276.44 612.36,-278.38 644.38,-264 647.81,-262.46 648.15,-260.08 651.91,-256.51"/>
<polygon fill="#000000" fill-opacity="0.200000" stroke="#000000" stroke-width="2" stroke-opacity="0.200000" points="652.96,-258.34 656.55,-253.1 650.47,-254.96 652.96,-258.34"/>
</g>
<!-- src/open/vectorFeature.ts&#45;&gt;src/open/shape.ts -->
<g id="edge37" class="edge">
<title>src/open/vectorFeature.ts&#45;&gt;src/open/shape.ts</title>
<path fill="none" stroke="#000000" stroke-width="2" stroke-opacity="0.200000" d="M542.43,-256.94C548.18,-256.07 554.06,-255.18 559.71,-254.32"/>
<polygon fill="#000000" fill-opacity="0.200000" stroke="#000000" stroke-width="2" stroke-opacity="0.200000" points="559.73,-256.44 565.34,-253.46 559.1,-252.29 559.73,-256.44"/>
</g>
<!-- src/open/vectorFeature.ts&#45;&gt;src/util.ts -->
<g id="edge35" class="edge">
<title>src/open/vectorFeature.ts&#45;&gt;src/util.ts</title>
<path fill="none" stroke="#000000" stroke-width="2" stroke-opacity="0.200000" d="M540.28,-272.34C590.11,-282.49 678.9,-292.85 742.38,-257 752.12,-251.5 760.34,-242.07 766.25,-233.76"/>
<polygon fill="#000000" fill-opacity="0.200000" stroke="#000000" stroke-width="2" stroke-opacity="0.200000" points="767.96,-234.97 769.52,-228.81 764.46,-232.65 767.96,-234.97"/>
</g>
</g>
</svg>
