<?xml version="1.0" encoding="UTF-8" standalone="no"?>
<!DOCTYPE svg PUBLIC "-//W3C//DTD SVG 1.1//EN"
 "http://www.w3.org/Graphics/SVG/1.1/DTD/svg11.dtd">
<!-- Generated by graphviz version 9.0.0 (20230911.1827)
 -->
<!-- Title: dependency&#45;cruiser output Pages: 1 -->
<svg width="803pt" height="368pt"
 viewBox="0.00 0.00 802.50 368.00" xmlns="http://www.w3.org/2000/svg" xmlns:xlink="http://www.w3.org/1999/xlink">
<g id="graph0" class="graph" transform="scale(1 1) rotate(0) translate(4 364)">
<title>dependency&#45;cruiser output</title>
<polygon fill="white" stroke="none" points="-4,4 -4,-364 798.5,-364 798.5,4 -4,4"/>
<g id="clust1" class="cluster">
<title>cluster_src</title>
<path fill="#ffffff" stroke="black" stroke-width="2" d="M20,-8C20,-8 774.5,-8 774.5,-8 780.5,-8 786.5,-14 786.5,-20 786.5,-20 786.5,-340 786.5,-340 786.5,-346 780.5,-352 774.5,-352 774.5,-352 20,-352 20,-352 14,-352 8,-346 8,-340 8,-340 8,-20 8,-20 8,-14 14,-8 20,-8"/>
<text text-anchor="middle" x="397.25" y="-339.45" font-family="Helvetica,sans-Serif" font-weight="bold" font-size="9.00">src</text>
</g>
<g id="clust2" class="cluster">
<title>cluster_src/base</title>
<path fill="#ffffff" stroke="black" stroke-width="2" d="M265.25,-16C265.25,-16 606.5,-16 606.5,-16 612.5,-16 618.5,-22 618.5,-28 618.5,-28 618.5,-84 618.5,-84 618.5,-90 612.5,-96 606.5,-96 606.5,-96 265.25,-96 265.25,-96 259.25,-96 253.25,-90 253.25,-84 253.25,-84 253.25,-28 253.25,-28 253.25,-22 259.25,-16 265.25,-16"/>
<text text-anchor="middle" x="435.88" y="-83.45" font-family="Helvetica,sans-Serif" font-weight="bold" font-size="9.00">base</text>
</g>
<g id="clust4" class="cluster">
<title>cluster_src/open</title>
<path fill="#ffffff" stroke="black" stroke-width="2" d="M265.25,-104C265.25,-104 704.5,-104 704.5,-104 710.5,-104 716.5,-110 716.5,-116 716.5,-116 716.5,-200 716.5,-200 716.5,-206 710.5,-212 704.5,-212 704.5,-212 265.25,-212 265.25,-212 259.25,-212 253.25,-206 253.25,-200 253.25,-200 253.25,-116 253.25,-116 253.25,-110 259.25,-104 265.25,-104"/>
<text text-anchor="middle" x="484.88" y="-199.45" font-family="Helvetica,sans-Serif" font-weight="bold" font-size="9.00">open</text>
</g>
<g id="clust3" class="cluster">
<title>cluster_src/mapbox</title>
<path fill="#ffffff" stroke="black" stroke-width="2" d="M188.75,-230C188.75,-230 415,-230 415,-230 421,-230 427,-236 427,-242 427,-242 427,-314 427,-314 427,-320 421,-326 415,-326 415,-326 188.75,-326 188.75,-326 182.75,-326 176.75,-320 176.75,-314 176.75,-314 176.75,-242 176.75,-242 176.75,-236 182.75,-230 188.75,-230"/>
<text text-anchor="middle" x="301.88" y="-313.45" font-family="Helvetica,sans-Serif" font-weight="bold" font-size="9.00">mapbox</text>
</g>
<!-- src/base/index.ts -->
<g id="node1" class="node">
<title>src/base/index.ts</title>
<g id="a_node1"><a xlink:href="src/base/index.ts" xlink:title="index.ts">
<path fill="#ddfeff" stroke="black" d="M309.33,-69.88C309.33,-69.88 267.17,-69.88 267.17,-69.88 264.21,-69.88 261.25,-66.92 261.25,-63.96 261.25,-63.96 261.25,-58.04 261.25,-58.04 261.25,-55.08 264.21,-52.12 267.17,-52.12 267.17,-52.12 309.33,-52.12 309.33,-52.12 312.29,-52.12 315.25,-55.08 315.25,-58.04 315.25,-58.04 315.25,-63.96 315.25,-63.96 315.25,-66.92 312.29,-69.88 309.33,-69.88"/>
<text text-anchor="start" x="272.5" y="-57.33" font-family="Helvetica,sans-Serif" font-size="9.00">index.ts</text>
</a>
</g>
</g>
<!-- src/base/vectorFeature.ts -->
<g id="node2" class="node">
<title>src/base/vectorFeature.ts</title>
<g id="a_node2"><a xlink:href="src/base/vectorFeature.ts" xlink:title="vectorFeature.ts">
<path fill="#ddfeff" stroke="black" d="M604.58,-69.88C604.58,-69.88 535.17,-69.88 535.17,-69.88 532.21,-69.88 529.25,-66.92 529.25,-63.96 529.25,-63.96 529.25,-58.04 529.25,-58.04 529.25,-55.08 532.21,-52.12 535.17,-52.12 535.17,-52.12 604.58,-52.12 604.58,-52.12 607.54,-52.12 610.5,-55.08 610.5,-58.04 610.5,-58.04 610.5,-63.96 610.5,-63.96 610.5,-66.92 607.54,-69.88 604.58,-69.88"/>
<text text-anchor="start" x="537.25" y="-57.33" font-family="Helvetica,sans-Serif" font-size="9.00">vectorFeature.ts</text>
</a>
</g>
</g>
<!-- src/base/index.ts&#45;&gt;src/base/vectorFeature.ts -->
<g id="edge1" class="edge">
<title>src/base/index.ts&#45;&gt;src/base/vectorFeature.ts</title>
<path fill="none" stroke="#000000" stroke-width="2" stroke-opacity="0.200000" d="M304.34,-51.7C313.61,-46.55 325.93,-40.66 337.75,-38 415.22,-20.56 438.17,-31.51 516.25,-46 521.82,-47.03 527.66,-48.4 533.32,-49.89"/>
<polygon fill="#000000" fill-opacity="0.200000" stroke="#000000" stroke-width="2" stroke-opacity="0.200000" points="538.36,-53.44 533.13,-49.84 539.47,-49.39 538.36,-53.44"/>
</g>
<!-- src/base/vectorLayer.ts -->
<g id="node3" class="node">
<title>src/base/vectorLayer.ts</title>
<g id="a_node3"><a xlink:href="src/base/vectorLayer.ts" xlink:title="vectorLayer.ts">
<path fill="#ddfeff" stroke="black" d="M506.21,-69.88C506.21,-69.88 445.04,-69.88 445.04,-69.88 442.08,-69.88 439.12,-66.92 439.12,-63.96 439.12,-63.96 439.12,-58.04 439.12,-58.04 439.12,-55.08 442.08,-52.12 445.04,-52.12 445.04,-52.12 506.21,-52.12 506.21,-52.12 509.17,-52.12 512.12,-55.08 512.12,-58.04 512.12,-58.04 512.12,-63.96 512.12,-63.96 512.12,-66.92 509.17,-69.88 506.21,-69.88"/>
<text text-anchor="start" x="447.12" y="-57.33" font-family="Helvetica,sans-Serif" font-size="9.00">vectorLayer.ts</text>
</a>
</g>
</g>
<!-- src/base/index.ts&#45;&gt;src/base/vectorLayer.ts -->
<g id="edge2" class="edge">
<title>src/base/index.ts&#45;&gt;src/base/vectorLayer.ts</title>
<path fill="none" stroke="#000000" stroke-width="2" stroke-opacity="0.200000" d="M314.09,-51.75C321.58,-49.39 329.91,-47.19 337.75,-46 376.97,-40.07 387.79,-39.97 427,-46 432.42,-46.83 438.07,-48.17 443.51,-49.71"/>
<polygon fill="#000000" fill-opacity="0.200000" stroke="#000000" stroke-width="2" stroke-opacity="0.200000" points="448.68,-53.47 443.55,-49.73 449.9,-49.45 448.68,-53.47"/>
</g>
<!-- src/base/vectorTile.ts -->
<g id="node4" class="node">
<title>src/base/vectorTile.ts</title>
<g id="a_node4"><a xlink:href="src/base/vectorTile.ts" xlink:title="vectorTile.ts">
<path fill="#ddfeff" stroke="black" d="M404.46,-69.88C404.46,-69.88 352.29,-69.88 352.29,-69.88 349.33,-69.88 346.38,-66.92 346.38,-63.96 346.38,-63.96 346.38,-58.04 346.38,-58.04 346.38,-55.08 349.33,-52.12 352.29,-52.12 352.29,-52.12 404.46,-52.12 404.46,-52.12 407.42,-52.12 410.38,-55.08 410.38,-58.04 410.38,-58.04 410.38,-63.96 410.38,-63.96 410.38,-66.92 407.42,-69.88 404.46,-69.88"/>
<text text-anchor="start" x="354.38" y="-57.33" font-family="Helvetica,sans-Serif" font-size="9.00">vectorTile.ts</text>
</a>
</g>
</g>
<!-- src/base/index.ts&#45;&gt;src/base/vectorTile.ts -->
<g id="edge3" class="edge">
<title>src/base/index.ts&#45;&gt;src/base/vectorTile.ts</title>
<path fill="none" stroke="#000000" stroke-width="2" stroke-opacity="0.200000" d="M315.69,-61C322.99,-61 331.06,-61 338.89,-61"/>
<polygon fill="#000000" fill-opacity="0.200000" stroke="#000000" stroke-width="2" stroke-opacity="0.200000" points="344.98,-63.1 338.98,-61 344.98,-58.9 344.98,-63.1"/>
</g>
<!-- src/open/columnCache.ts -->
<g id="node5" class="node">
<title>src/open/columnCache.ts</title>
<g id="a_node5"><a xlink:href="src/open/columnCache.ts" xlink:title="columnCache.ts">
<path fill="#ddfeff" stroke="black" d="M702.58,-156.88C702.58,-156.88 632.42,-156.88 632.42,-156.88 629.46,-156.88 626.5,-153.92 626.5,-150.96 626.5,-150.96 626.5,-145.04 626.5,-145.04 626.5,-142.08 629.46,-139.12 632.42,-139.12 632.42,-139.12 702.58,-139.12 702.58,-139.12 705.54,-139.12 708.5,-142.08 708.5,-145.04 708.5,-145.04 708.5,-150.96 708.5,-150.96 708.5,-153.92 705.54,-156.88 702.58,-156.88"/>
<text text-anchor="start" x="634.5" y="-144.32" font-family="Helvetica,sans-Serif" font-size="9.00">columnCache.ts</text>
</a>
</g>
</g>
<!-- src/base/vectorFeature.ts&#45;&gt;src/open/columnCache.ts -->
<g id="edge4" class="edge">
<title>src/base/vectorFeature.ts&#45;&gt;src/open/columnCache.ts</title>
<path fill="none" stroke="#000000" stroke-width="2" stroke-opacity="0.200000" d="M586.47,-70.27C597.08,-77.37 610.58,-88.13 618.5,-101 625.3,-112.05 618.98,-120.4 625.35,-131.71"/>
<polygon fill="#000000" fill-opacity="0.200000" stroke="#000000" stroke-width="2" stroke-opacity="0.200000" points="623.6,-132.88 628.92,-136.36 626.93,-130.32 623.6,-132.88"/>
</g>
<!-- src/open/shape.ts -->
<g id="node6" class="node">
<title>src/open/shape.ts</title>
<g id="a_node6"><a xlink:href="src/open/shape.ts" xlink:title="shape.ts">
<path fill="#ddfeff" stroke="black" d="M590.96,-145.88C590.96,-145.88 548.79,-145.88 548.79,-145.88 545.83,-145.88 542.88,-142.92 542.88,-139.96 542.88,-139.96 542.88,-134.04 542.88,-134.04 542.88,-131.08 545.83,-128.12 548.79,-128.12 548.79,-128.12 590.96,-128.12 590.96,-128.12 593.92,-128.12 596.88,-131.08 596.88,-134.04 596.88,-134.04 596.88,-139.96 596.88,-139.96 596.88,-142.92 593.92,-145.88 590.96,-145.88"/>
<text text-anchor="start" x="552.62" y="-133.32" font-family="Helvetica,sans-Serif" font-size="9.00">shape.ts</text>
</a>
</g>
</g>
<!-- src/base/vectorFeature.ts&#45;&gt;src/open/shape.ts -->
<g id="edge5" class="edge">
<title>src/base/vectorFeature.ts&#45;&gt;src/open/shape.ts</title>
<path fill="none" stroke="#000000" stroke-width="2" stroke-opacity="0.200000" d="M569.88,-70.2C569.88,-86.42 569.88,-102.64 569.88,-118.86"/>
<polygon fill="#000000" fill-opacity="0.200000" stroke="#000000" stroke-width="2" stroke-opacity="0.200000" points="567.78,-118.84 569.88,-124.84 571.98,-118.84 567.78,-118.84"/>
</g>
<!-- src/util.ts -->
<g id="node7" class="node">
<title>src/util.ts</title>
<g id="a_node7"><a xlink:href="src/util.ts" xlink:title="util.ts">
<path fill="#ddfeff" stroke="black" d="M772.58,-187.88C772.58,-187.88 730.42,-187.88 730.42,-187.88 727.46,-187.88 724.5,-184.92 724.5,-181.96 724.5,-181.96 724.5,-176.04 724.5,-176.04 724.5,-173.08 727.46,-170.12 730.42,-170.12 730.42,-170.12 772.58,-170.12 772.58,-170.12 775.54,-170.12 778.5,-173.08 778.5,-176.04 778.5,-176.04 778.5,-181.96 778.5,-181.96 778.5,-184.92 775.54,-187.88 772.58,-187.88"/>
<text text-anchor="start" x="741" y="-175.32" font-family="Helvetica,sans-Serif" font-size="9.00">util.ts</text>
</a>
</g>
</g>
<!-- src/base/vectorFeature.ts&#45;&gt;src/util.ts -->
<g id="edge6" class="edge">
<title>src/base/vectorFeature.ts&#45;&gt;src/util.ts</title>
<path fill="none" stroke="#000000" stroke-width="2" stroke-opacity="0.200000" d="M610.78,-62.75C642.78,-66.13 687.07,-75.51 716.5,-101 734.4,-116.51 743.21,-143.18 747.3,-160.95"/>
<polygon fill="#000000" fill-opacity="0.200000" stroke="#000000" stroke-width="2" stroke-opacity="0.200000" points="745.24,-161.36 748.51,-166.82 749.36,-160.52 745.24,-161.36"/>
</g>
<!-- src/base/vectorLayer.ts&#45;&gt;src/base/vectorFeature.ts -->
<g id="edge8" class="edge">
<title>src/base/vectorLayer.ts&#45;&gt;src/base/vectorFeature.ts</title>
<path fill="none" stroke="#000000" stroke-width="2" stroke-opacity="0.200000" d="M512.56,-61C514.99,-61 517.45,-61 519.94,-61"/>
<polygon fill="#000000" fill-opacity="0.200000" stroke="#000000" stroke-width="2" stroke-opacity="0.200000" points="519.89,-63.1 525.89,-61 519.89,-58.9 519.89,-63.1"/>
</g>
<!-- src/base/vectorLayer.ts&#45;&gt;src/open/shape.ts -->
<g id="edge7" class="edge">
<title>src/base/vectorLayer.ts&#45;&gt;src/open/shape.ts</title>
<path fill="none" stroke="#000000" stroke-width="2" stroke-opacity="0.200000" d="M487.94,-70.32C503.65,-83.27 532.26,-106.83 550.91,-122.2"/>
<polygon fill="#000000" fill-opacity="0.200000" stroke="#000000" stroke-width="2" stroke-opacity="0.200000" points="549.46,-123.72 555.42,-125.92 552.13,-120.48 549.46,-123.72"/>
</g>
<!-- src/base/vectorTile.ts&#45;&gt;src/base/vectorLayer.ts -->
<g id="edge10" class="edge">
<title>src/base/vectorTile.ts&#45;&gt;src/base/vectorLayer.ts</title>
<path fill="none" stroke="#000000" stroke-width="2" stroke-opacity="0.200000" d="M410.83,-61C417.01,-61 423.61,-61 430.13,-61"/>
<polygon fill="#000000" fill-opacity="0.200000" stroke="#000000" stroke-width="2" stroke-opacity="0.200000" points="429.89,-63.1 435.89,-61 429.89,-58.9 429.89,-63.1"/>
</g>
<!-- src/mapbox/vectorLayer.ts -->
<g id="node8" class="node">
<title>src/mapbox/vectorLayer.ts</title>
<g id="a_node8"><a xlink:href="src/mapbox/vectorLayer.ts" xlink:title="vectorLayer.ts">
<path fill="#ddfeff" stroke="black" d="M318.83,-255.88C318.83,-255.88 257.67,-255.88 257.67,-255.88 254.71,-255.88 251.75,-252.92 251.75,-249.96 251.75,-249.96 251.75,-244.04 251.75,-244.04 251.75,-241.08 254.71,-238.12 257.67,-238.12 257.67,-238.12 318.83,-238.12 318.83,-238.12 321.79,-238.12 324.75,-241.08 324.75,-244.04 324.75,-244.04 324.75,-249.96 324.75,-249.96 324.75,-252.92 321.79,-255.88 318.83,-255.88"/>
<text text-anchor="start" x="259.75" y="-243.32" font-family="Helvetica,sans-Serif" font-size="9.00">vectorLayer.ts</text>
</a>
</g>
</g>
<!-- src/base/vectorTile.ts&#45;&gt;src/mapbox/vectorLayer.ts -->
<g id="edge9" class="edge">
<title>src/base/vectorTile.ts&#45;&gt;src/mapbox/vectorLayer.ts</title>
<path fill="none" stroke="#000000" stroke-width="2" stroke-opacity="0.200000" d="M364.37,-70.29C355.29,-77.55 343.75,-88.48 337.75,-101 315.7,-146.98 348.09,-169.66 324.75,-215 321.39,-221.54 316.1,-227.38 310.62,-232.23"/>
<polygon fill="#000000" fill-opacity="0.200000" stroke="#000000" stroke-width="2" stroke-opacity="0.200000" points="309.41,-230.51 306.07,-235.91 312.05,-233.77 309.41,-230.51"/>
</g>
<!-- src/open/columnCache.ts&#45;&gt;src/util.ts -->
<g id="edge22" class="edge">
<title>src/open/columnCache.ts&#45;&gt;src/util.ts</title>
<path fill="none" stroke="#000000" stroke-width="2" stroke-opacity="0.200000" d="M706.23,-157.36C709.74,-158.48 713.21,-159.7 716.5,-161 719.83,-162.31 723.26,-163.87 726.59,-165.5"/>
<polygon fill="#000000" fill-opacity="0.200000" stroke="#000000" stroke-width="2" stroke-opacity="0.200000" points="725.61,-167.36 731.9,-168.25 727.54,-163.63 725.61,-167.36"/>
</g>
<!-- src/open/shape.ts&#45;&gt;src/open/columnCache.ts -->
<g id="edge27" class="edge">
<title>src/open/shape.ts&#45;&gt;src/open/columnCache.ts</title>
<path fill="none" stroke="#000000" stroke-width="2" stroke-opacity="0.200000" d="M597.26,-140.03C603.56,-140.76 610.48,-141.56 617.43,-142.36"/>
<polygon fill="#000000" fill-opacity="0.200000" stroke="#000000" stroke-width="2" stroke-opacity="0.200000" points="617.01,-144.42 623.22,-143.02 617.49,-140.25 617.01,-144.42"/>
</g>
<!-- src/mapbox/vectorFeature.ts -->
<g id="node15" class="node">
<title>src/mapbox/vectorFeature.ts</title>
<g id="a_node15"><a xlink:href="src/mapbox/vectorFeature.ts" xlink:title="vectorFeature.ts">
<path fill="#ddfeff" stroke="black" d="M413.08,-290.88C413.08,-290.88 343.67,-290.88 343.67,-290.88 340.71,-290.88 337.75,-287.92 337.75,-284.96 337.75,-284.96 337.75,-279.04 337.75,-279.04 337.75,-276.08 340.71,-273.12 343.67,-273.12 343.67,-273.12 413.08,-273.12 413.08,-273.12 416.04,-273.12 419,-276.08 419,-279.04 419,-279.04 419,-284.96 419,-284.96 419,-287.92 416.04,-290.88 413.08,-290.88"/>
<text text-anchor="start" x="345.75" y="-278.32" font-family="Helvetica,sans-Serif" font-size="9.00">vectorFeature.ts</text>
</a>
</g>
</g>
<!-- src/mapbox/vectorLayer.ts&#45;&gt;src/mapbox/vectorFeature.ts -->
<g id="edge21" class="edge">
<title>src/mapbox/vectorLayer.ts&#45;&gt;src/mapbox/vectorFeature.ts</title>
<path fill="none" stroke="#000000" stroke-width="2" stroke-opacity="0.200000" d="M312.31,-256.37C316.48,-258.17 320.77,-260.09 324.75,-262 330.67,-264.84 331.72,-266.41 337.75,-269 338.13,-269.16 338.52,-269.33 338.91,-269.49"/>
<polygon fill="#000000" fill-opacity="0.200000" stroke="#000000" stroke-width="2" stroke-opacity="0.200000" points="338.13,-271.44 344.49,-271.66 339.66,-267.53 338.13,-271.44"/>
</g>
<!-- src/ieee754.ts -->
<g id="node9" class="node">
<title>src/ieee754.ts</title>
<g id="a_node9"><a xlink:href="src/ieee754.ts" xlink:title="ieee754.ts">
<path fill="#ddfeff" stroke="black" d="M690.96,-237.88C690.96,-237.88 644.04,-237.88 644.04,-237.88 641.08,-237.88 638.12,-234.92 638.12,-231.96 638.12,-231.96 638.12,-226.04 638.12,-226.04 638.12,-223.08 641.08,-220.12 644.04,-220.12 644.04,-220.12 690.96,-220.12 690.96,-220.12 693.92,-220.12 696.88,-223.08 696.88,-226.04 696.88,-226.04 696.88,-231.96 696.88,-231.96 696.88,-234.92 693.92,-237.88 690.96,-237.88"/>
<text text-anchor="start" x="646.12" y="-225.32" font-family="Helvetica,sans-Serif" font-size="9.00">ieee754.ts</text>
</a>
</g>
</g>
<!-- src/index.ts -->
<g id="node10" class="node">
<title>src/index.ts</title>
<g id="a_node10"><a xlink:href="src/index.ts" xlink:title="index.ts">
<path fill="#ddfeff" stroke="black" d="M64.08,-142.88C64.08,-142.88 21.92,-142.88 21.92,-142.88 18.96,-142.88 16,-139.92 16,-136.96 16,-136.96 16,-131.04 16,-131.04 16,-128.08 18.96,-125.12 21.92,-125.12 21.92,-125.12 64.08,-125.12 64.08,-125.12 67.04,-125.12 70,-128.08 70,-131.04 70,-131.04 70,-136.96 70,-136.96 70,-139.92 67.04,-142.88 64.08,-142.88"/>
<text text-anchor="start" x="27.25" y="-130.32" font-family="Helvetica,sans-Serif" font-size="9.00">index.ts</text>
</a>
</g>
</g>
<!-- src/index.ts&#45;&gt;src/base/index.ts -->
<g id="edge11" class="edge">
<title>src/index.ts&#45;&gt;src/base/index.ts</title>
<path fill="none" stroke="#000000" stroke-width="2" stroke-opacity="0.200000" d="M68.34,-124.64C73.2,-122.77 78.26,-120.82 83,-119 124.66,-102.99 133.87,-95.4 176.75,-83 202.35,-75.59 232,-69.84 254.14,-66.08"/>
<polygon fill="#000000" fill-opacity="0.200000" stroke="#000000" stroke-width="2" stroke-opacity="0.200000" points="260.41,-67.16 254.15,-66.08 259.72,-63.02 260.41,-67.16"/>
</g>
<!-- src/vectorTile.ts -->
<g id="node11" class="node">
<title>src/vectorTile.ts</title>
<g id="a_node11"><a xlink:href="src/vectorTile.ts" xlink:title="vectorTile.ts">
<path fill="#ddfeff" stroke="black" d="M151.96,-142.88C151.96,-142.88 99.79,-142.88 99.79,-142.88 96.83,-142.88 93.88,-139.92 93.88,-136.96 93.88,-136.96 93.88,-131.04 93.88,-131.04 93.88,-128.08 96.83,-125.12 99.79,-125.12 99.79,-125.12 151.96,-125.12 151.96,-125.12 154.92,-125.12 157.88,-128.08 157.88,-131.04 157.88,-131.04 157.88,-136.96 157.88,-136.96 157.88,-139.92 154.92,-142.88 151.96,-142.88"/>
<text text-anchor="start" x="101.88" y="-130.32" font-family="Helvetica,sans-Serif" font-size="9.00">vectorTile.ts</text>
</a>
</g>
</g>
<!-- src/index.ts&#45;&gt;src/vectorTile.ts -->
<g id="edge12" class="edge">
<title>src/index.ts&#45;&gt;src/vectorTile.ts</title>
<path fill="none" stroke="#000000" stroke-width="2" stroke-opacity="0.200000" d="M70.48,-134C75.66,-134 81.2,-134 86.67,-134"/>
<polygon fill="#000000" fill-opacity="0.200000" stroke="#000000" stroke-width="2" stroke-opacity="0.200000" points="92.55,-136.1 86.55,-134 92.55,-131.9 92.55,-136.1"/>
</g>
<!-- src/vectorTile.spec.ts -->
<g id="node12" class="node">
<title>src/vectorTile.spec.ts</title>
<g id="a_node12"><a xlink:href="src/vectorTile.spec.ts" xlink:title="vectorTile.spec.ts">
<path fill="#ddfeff" stroke="black" d="M162.83,-172.88C162.83,-172.88 88.92,-172.88 88.92,-172.88 85.96,-172.88 83,-169.92 83,-166.96 83,-166.96 83,-161.04 83,-161.04 83,-158.08 85.96,-155.12 88.92,-155.12 88.92,-155.12 162.83,-155.12 162.83,-155.12 165.79,-155.12 168.75,-158.08 168.75,-161.04 168.75,-161.04 168.75,-166.96 168.75,-166.96 168.75,-169.92 165.79,-172.88 162.83,-172.88"/>
<text text-anchor="start" x="91" y="-160.32" font-family="Helvetica,sans-Serif" font-size="9.00">vectorTile.spec.ts</text>
</a>
</g>
</g>
<!-- src/index.ts&#45;&gt;src/vectorTile.spec.ts -->
<g id="edge13" class="edge">
<title>src/index.ts&#45;&gt;src/vectorTile.spec.ts</title>
<g id="a_edge13"><a xlink:title="not&#45;to&#45;spec">
<path fill="none" stroke="orange" stroke-width="2" d="M67.89,-143.29C72.88,-145.2 78.1,-147.18 83,-149 86.01,-150.12 89.14,-151.27 92.29,-152.41"/>
<polygon fill="orange" stroke="orange" stroke-width="2" points="97.05,-156.37 92.12,-152.35 98.48,-152.42 97.05,-156.37"/>
</a>
</g>
<text text-anchor="middle" x="106.44" y="-145.53" font-family="Helvetica,sans-Serif" font-size="9.00" fill="orange">not&#45;to&#45;spec</text>
</g>
<!-- src/vectorTile.ts&#45;&gt;src/base/index.ts -->
<g id="edge37" class="edge">
<title>src/vectorTile.ts&#45;&gt;src/base/index.ts</title>
<path fill="none" stroke="#000000" stroke-width="2" stroke-opacity="0.200000" d="M147.19,-124.75C175.43,-111.9 226.69,-88.57 258.75,-73.97"/>
<polygon fill="#000000" fill-opacity="0.200000" stroke="#000000" stroke-width="2" stroke-opacity="0.200000" points="259.5,-75.94 264.1,-71.54 257.76,-72.11 259.5,-75.94"/>
</g>
<!-- src/mapbox/index.ts -->
<g id="node13" class="node">
<title>src/mapbox/index.ts</title>
<g id="a_node13"><a xlink:href="src/mapbox/index.ts" xlink:title="index.ts">
<path fill="#ddfeff" stroke="black" d="M232.83,-270.88C232.83,-270.88 190.67,-270.88 190.67,-270.88 187.71,-270.88 184.75,-267.92 184.75,-264.96 184.75,-264.96 184.75,-259.04 184.75,-259.04 184.75,-256.08 187.71,-253.12 190.67,-253.12 190.67,-253.12 232.83,-253.12 232.83,-253.12 235.79,-253.12 238.75,-256.08 238.75,-259.04 238.75,-259.04 238.75,-264.96 238.75,-264.96 238.75,-267.92 235.79,-270.88 232.83,-270.88"/>
<text text-anchor="start" x="196" y="-258.32" font-family="Helvetica,sans-Serif" font-size="9.00">index.ts</text>
</a>
</g>
</g>
<!-- src/vectorTile.ts&#45;&gt;src/mapbox/index.ts -->
<g id="edge38" class="edge">
<title>src/vectorTile.ts&#45;&gt;src/mapbox/index.ts</title>
<path fill="none" stroke="#000000" stroke-width="2" stroke-opacity="0.200000" d="M157.97,-140.44C162.14,-142.54 165.93,-145.32 168.75,-149 182.3,-166.7 163.39,-231.15 176.75,-249 177.01,-249.34 177.27,-249.67 177.55,-250"/>
<polygon fill="#000000" fill-opacity="0.200000" stroke="#000000" stroke-width="2" stroke-opacity="0.200000" points="176.13,-251.55 182.12,-253.69 178.77,-248.29 176.13,-251.55"/>
</g>
<!-- src/pbf.ts -->
<g id="node17" class="node">
<title>src/pbf.ts</title>
<g id="a_node17"><a xlink:href="src/pbf.ts" xlink:title="pbf.ts">
<path fill="#ddfeff" stroke="black" d="M590.96,-237.88C590.96,-237.88 548.79,-237.88 548.79,-237.88 545.83,-237.88 542.88,-234.92 542.88,-231.96 542.88,-231.96 542.88,-226.04 542.88,-226.04 542.88,-223.08 545.83,-220.12 548.79,-220.12 548.79,-220.12 590.96,-220.12 590.96,-220.12 593.92,-220.12 596.88,-223.08 596.88,-226.04 596.88,-226.04 596.88,-231.96 596.88,-231.96 596.88,-234.92 593.92,-237.88 590.96,-237.88"/>
<text text-anchor="start" x="559" y="-225.32" font-family="Helvetica,sans-Serif" font-size="9.00">pbf.ts</text>
</a>
</g>
</g>
<!-- src/vectorTile.ts&#45;&gt;src/pbf.ts -->
<g id="edge40" class="edge">
<title>src/vectorTile.ts&#45;&gt;src/pbf.ts</title>
<path fill="none" stroke="#000000" stroke-width="2" stroke-opacity="0.200000" d="M156.7,-143.31C160.84,-145 164.97,-146.9 168.75,-149 209.93,-171.92 208.71,-195.8 251.75,-215 266.36,-221.52 271.25,-221 287.25,-221 287.25,-221 287.25,-221 379.38,-221 433.33,-221 495.86,-224.28 533.87,-226.64"/>
<polygon fill="#000000" fill-opacity="0.200000" stroke="#000000" stroke-width="2" stroke-opacity="0.200000" points="533.38,-228.71 539.5,-226.99 533.65,-224.52 533.38,-228.71"/>
</g>
<!-- src/open/index.ts -->
<g id="node18" class="node">
<title>src/open/index.ts</title>
<g id="a_node18"><a xlink:href="src/open/index.ts" xlink:title="index.ts">
<path fill="#ddfeff" stroke="black" d="M309.33,-142.88C309.33,-142.88 267.17,-142.88 267.17,-142.88 264.21,-142.88 261.25,-139.92 261.25,-136.96 261.25,-136.96 261.25,-131.04 261.25,-131.04 261.25,-128.08 264.21,-125.12 267.17,-125.12 267.17,-125.12 309.33,-125.12 309.33,-125.12 312.29,-125.12 315.25,-128.08 315.25,-131.04 315.25,-131.04 315.25,-136.96 315.25,-136.96 315.25,-139.92 312.29,-142.88 309.33,-142.88"/>
<text text-anchor="start" x="272.5" y="-130.32" font-family="Helvetica,sans-Serif" font-size="9.00">index.ts</text>
</a>
</g>
</g>
<!-- src/vectorTile.ts&#45;&gt;src/open/index.ts -->
<g id="edge39" class="edge">
<title>src/vectorTile.ts&#45;&gt;src/open/index.ts</title>
<path fill="none" stroke="#000000" stroke-width="2" stroke-opacity="0.200000" d="M158.18,-134C185.16,-134 224.08,-134 252.11,-134"/>
<polygon fill="#000000" fill-opacity="0.200000" stroke="#000000" stroke-width="2" stroke-opacity="0.200000" points="251.78,-136.1 257.78,-134 251.78,-131.9 251.78,-136.1"/>
</g>
<!-- src/mapbox/index.ts&#45;&gt;src/mapbox/vectorLayer.ts -->
<g id="edge16" class="edge">
<title>src/mapbox/index.ts&#45;&gt;src/mapbox/vectorLayer.ts</title>
<path fill="none" stroke="#000000" stroke-width="2" stroke-opacity="0.200000" d="M239.23,-256.67C240.95,-256.32 242.7,-255.97 244.47,-255.61"/>
<polygon fill="#000000" fill-opacity="0.200000" stroke="#000000" stroke-width="2" stroke-opacity="0.200000" points="250.78,-256.48 244.49,-255.61 249.95,-252.37 250.78,-256.48"/>
</g>
<!-- src/mapbox/serializeS2.ts -->
<g id="node14" class="node">
<title>src/mapbox/serializeS2.ts</title>
<g id="a_node14"><a xlink:href="src/mapbox/serializeS2.ts" xlink:title="serializeS2.ts">
<path fill="#ddfeff" stroke="black" d="M317.71,-285.88C317.71,-285.88 258.79,-285.88 258.79,-285.88 255.83,-285.88 252.88,-282.92 252.88,-279.96 252.88,-279.96 252.88,-274.04 252.88,-274.04 252.88,-271.08 255.83,-268.12 258.79,-268.12 258.79,-268.12 317.71,-268.12 317.71,-268.12 320.67,-268.12 323.62,-271.08 323.62,-274.04 323.62,-274.04 323.62,-279.96 323.62,-279.96 323.62,-282.92 320.67,-285.88 317.71,-285.88"/>
<text text-anchor="start" x="260.88" y="-273.32" font-family="Helvetica,sans-Serif" font-size="9.00">serializeS2.ts</text>
</a>
</g>
</g>
<!-- src/mapbox/index.ts&#45;&gt;src/mapbox/serializeS2.ts -->
<g id="edge14" class="edge">
<title>src/mapbox/index.ts&#45;&gt;src/mapbox/serializeS2.ts</title>
<path fill="none" stroke="#000000" stroke-width="2" stroke-opacity="0.200000" d="M239.23,-267.33C241.36,-267.76 243.54,-268.2 245.75,-268.64"/>
<polygon fill="#000000" fill-opacity="0.200000" stroke="#000000" stroke-width="2" stroke-opacity="0.200000" points="251,-271.84 245.53,-268.6 251.83,-267.73 251,-271.84"/>
</g>
<!-- src/mapbox/index.ts&#45;&gt;src/mapbox/vectorFeature.ts -->
<g id="edge15" class="edge">
<title>src/mapbox/index.ts&#45;&gt;src/mapbox/vectorFeature.ts</title>
<path fill="none" stroke="#000000" stroke-width="2" stroke-opacity="0.200000" d="M221.33,-271.34C228.62,-278.54 239.78,-287.93 251.75,-292 279.87,-301.56 313.48,-298.17 338.87,-292.88"/>
<polygon fill="#000000" fill-opacity="0.200000" stroke="#000000" stroke-width="2" stroke-opacity="0.200000" points="345.27,-293.61 338.96,-292.86 344.36,-289.51 345.27,-293.61"/>
</g>
<!-- src/mapbox/serializeS2.ts&#45;&gt;src/base/index.ts -->
<g id="edge17" class="edge">
<title>src/mapbox/serializeS2.ts&#45;&gt;src/base/index.ts</title>
<path fill="none" stroke="#000000" stroke-width="2" stroke-opacity="0.200000" d="M255.98,-267.77C251.37,-264.85 247.45,-261.02 245.25,-256 238.61,-240.83 239.17,-122.4 245.25,-107 250.05,-94.85 259.74,-84.01 268.71,-75.92"/>
<polygon fill="#000000" fill-opacity="0.200000" stroke="#000000" stroke-width="2" stroke-opacity="0.200000" points="269.82,-77.73 273.03,-72.24 267.1,-74.53 269.82,-77.73"/>
</g>
<!-- src/mapbox/serializeS2.ts&#45;&gt;src/util.ts -->
<g id="edge20" class="edge">
<title>src/mapbox/serializeS2.ts&#45;&gt;src/util.ts</title>
<path fill="none" stroke="#000000" stroke-width="2" stroke-opacity="0.200000" d="M323.9,-269.2C360.98,-261.54 421.65,-251 474.62,-251 474.62,-251 474.62,-251 570.88,-251 635.67,-251 661.89,-278.88 716.5,-244 733.03,-233.44 741.98,-212.06 746.48,-196.7"/>
<polygon fill="#000000" fill-opacity="0.200000" stroke="#000000" stroke-width="2" stroke-opacity="0.200000" points="748.49,-197.33 747.98,-190.99 744.43,-196.26 748.49,-197.33"/>
</g>
<!-- src/open/vectorLayer.ts -->
<g id="node16" class="node">
<title>src/open/vectorLayer.ts</title>
<g id="a_node16"><a xlink:href="src/open/vectorLayer.ts" xlink:title="vectorLayer.ts">
<path fill="#ddfeff" stroke="black" d="M408.96,-171.88C408.96,-171.88 347.79,-171.88 347.79,-171.88 344.83,-171.88 341.88,-168.92 341.88,-165.96 341.88,-165.96 341.88,-160.04 341.88,-160.04 341.88,-157.08 344.83,-154.12 347.79,-154.12 347.79,-154.12 408.96,-154.12 408.96,-154.12 411.92,-154.12 414.88,-157.08 414.88,-160.04 414.88,-160.04 414.88,-165.96 414.88,-165.96 414.88,-168.92 411.92,-171.88 408.96,-171.88"/>
<text text-anchor="start" x="349.88" y="-159.32" font-family="Helvetica,sans-Serif" font-size="9.00">vectorLayer.ts</text>
</a>
</g>
</g>
<!-- src/mapbox/serializeS2.ts&#45;&gt;src/open/vectorLayer.ts -->
<g id="edge18" class="edge">
<title>src/mapbox/serializeS2.ts&#45;&gt;src/open/vectorLayer.ts</title>
<path fill="none" stroke="#000000" stroke-width="2" stroke-opacity="0.200000" d="M317.43,-267.77C320.11,-266.13 322.62,-264.22 324.75,-262 336.22,-250.01 330.46,-241.91 337.75,-227 345.95,-210.24 357.32,-192.28 365.78,-179.66"/>
<polygon fill="#000000" fill-opacity="0.200000" stroke="#000000" stroke-width="2" stroke-opacity="0.200000" points="367.51,-180.85 369.15,-174.71 364.04,-178.48 367.51,-180.85"/>
</g>
<!-- src/mapbox/serializeS2.ts&#45;&gt;src/pbf.ts -->
<g id="edge19" class="edge">
<title>src/mapbox/serializeS2.ts&#45;&gt;src/pbf.ts</title>
<path fill="none" stroke="#000000" stroke-width="2" stroke-opacity="0.200000" d="M315.22,-267.69C318.56,-266.02 321.83,-264.12 324.75,-262 331.89,-256.82 329.87,-250.97 337.75,-247 371.11,-230.17 477.65,-228.29 533.68,-228.52"/>
<polygon fill="#000000" fill-opacity="0.200000" stroke="#000000" stroke-width="2" stroke-opacity="0.200000" points="533.5,-230.62 539.51,-228.56 533.53,-226.42 533.5,-230.62"/>
</g>
<!-- src/open/vectorLayer.ts&#45;&gt;src/open/columnCache.ts -->
<g id="edge33" class="edge">
<title>src/open/vectorLayer.ts&#45;&gt;src/open/columnCache.ts</title>
<path fill="none" stroke="#000000" stroke-width="2" stroke-opacity="0.200000" d="M413.61,-172.32C424.69,-175.33 434.34,-177.91 435,-178 502.18,-186.9 580.37,-171.37 626.53,-159.53"/>
<polygon fill="#000000" fill-opacity="0.200000" stroke="#000000" stroke-width="2" stroke-opacity="0.200000" points="626.84,-161.62 632.11,-158.07 625.77,-157.56 626.84,-161.62"/>
</g>
<!-- src/open/vectorLayer.ts&#45;&gt;src/open/shape.ts -->
<g id="edge34" class="edge">
<title>src/open/vectorLayer.ts&#45;&gt;src/open/shape.ts</title>
<path fill="none" stroke="#000000" stroke-width="2" stroke-opacity="0.200000" d="M410.05,-153.66C418.1,-151.5 426.82,-149.43 435,-148 468.23,-142.2 506.65,-139.45 533.78,-138.14"/>
<polygon fill="#000000" fill-opacity="0.200000" stroke="#000000" stroke-width="2" stroke-opacity="0.200000" points="533.61,-140.25 539.51,-137.89 533.42,-136.06 533.61,-140.25"/>
</g>
<!-- src/open/vectorFeature.ts -->
<g id="node19" class="node">
<title>src/open/vectorFeature.ts</title>
<g id="a_node19"><a xlink:href="src/open/vectorFeature.ts" xlink:title="vectorFeature.ts">
<path fill="#ddfeff" stroke="black" d="M510.33,-171.88C510.33,-171.88 440.92,-171.88 440.92,-171.88 437.96,-171.88 435,-168.92 435,-165.96 435,-165.96 435,-160.04 435,-160.04 435,-157.08 437.96,-154.12 440.92,-154.12 440.92,-154.12 510.33,-154.12 510.33,-154.12 513.29,-154.12 516.25,-157.08 516.25,-160.04 516.25,-160.04 516.25,-165.96 516.25,-165.96 516.25,-168.92 513.29,-171.88 510.33,-171.88"/>
<text text-anchor="start" x="443" y="-159.32" font-family="Helvetica,sans-Serif" font-size="9.00">vectorFeature.ts</text>
</a>
</g>
</g>
<!-- src/open/vectorLayer.ts&#45;&gt;src/open/vectorFeature.ts -->
<g id="edge35" class="edge">
<title>src/open/vectorLayer.ts&#45;&gt;src/open/vectorFeature.ts</title>
<path fill="none" stroke="#000000" stroke-width="2" stroke-opacity="0.200000" d="M415.11,-163C418.58,-163 422.13,-163 425.7,-163"/>
<polygon fill="#000000" fill-opacity="0.200000" stroke="#000000" stroke-width="2" stroke-opacity="0.200000" points="425.5,-165.1 431.5,-163 425.5,-160.9 425.5,-165.1"/>
</g>
<!-- src/pbf.ts&#45;&gt;src/ieee754.ts -->
<g id="edge36" class="edge">
<title>src/pbf.ts&#45;&gt;src/ieee754.ts</title>
<path fill="none" stroke="#000000" stroke-width="2" stroke-opacity="0.200000" d="M597.26,-229C607.11,-229 618.48,-229 629.13,-229"/>
<polygon fill="#000000" fill-opacity="0.200000" stroke="#000000" stroke-width="2" stroke-opacity="0.200000" points="628.83,-231.1 634.83,-229 628.83,-226.9 628.83,-231.1"/>
</g>
<!-- src/open/index.ts&#45;&gt;src/open/columnCache.ts -->
<g id="edge23" class="edge">
<title>src/open/index.ts&#45;&gt;src/open/columnCache.ts</title>
<path fill="none" stroke="#000000" stroke-width="2" stroke-opacity="0.200000" d="M315.64,-129.6C384.33,-118.67 566.94,-93.19 618.5,-122 623.22,-124.64 622.11,-128.66 626.97,-134.16"/>
<polygon fill="#000000" fill-opacity="0.200000" stroke="#000000" stroke-width="2" stroke-opacity="0.200000" points="629.9,-139.57 626.81,-134.02 632.69,-136.43 629.9,-139.57"/>
</g>
<!-- src/open/index.ts&#45;&gt;src/open/shape.ts -->
<g id="edge24" class="edge">
<title>src/open/index.ts&#45;&gt;src/open/shape.ts</title>
<path fill="none" stroke="#000000" stroke-width="2" stroke-opacity="0.200000" d="M315.68,-133.36C322.84,-133.21 330.59,-133.07 337.75,-133 377.41,-132.59 387.34,-132.44 427,-133 464.14,-133.52 506.72,-134.82 535.47,-135.79"/>
<polygon fill="#000000" fill-opacity="0.200000" stroke="#000000" stroke-width="2" stroke-opacity="0.200000" points="541.4,-138.1 535.47,-135.79 541.54,-133.9 541.4,-138.1"/>
</g>
<!-- src/open/index.ts&#45;&gt;src/open/vectorLayer.ts -->
<g id="edge26" class="edge">
<title>src/open/index.ts&#45;&gt;src/open/vectorLayer.ts</title>
<path fill="none" stroke="#000000" stroke-width="2" stroke-opacity="0.200000" d="M315.69,-142.7C324.09,-145.47 333.52,-148.57 342.43,-151.5"/>
<polygon fill="#000000" fill-opacity="0.200000" stroke="#000000" stroke-width="2" stroke-opacity="0.200000" points="347.51,-155.38 342.46,-151.51 348.82,-151.39 347.51,-155.38"/>
</g>
<!-- src/open/index.ts&#45;&gt;src/open/vectorFeature.ts -->
<g id="edge25" class="edge">
<title>src/open/index.ts&#45;&gt;src/open/vectorFeature.ts</title>
<path fill="none" stroke="#000000" stroke-width="2" stroke-opacity="0.200000" d="M315.64,-135.08C343.55,-136.6 388.74,-140.12 427,-148 431.9,-149.01 437.02,-150.33 442,-151.76"/>
<polygon fill="#000000" fill-opacity="0.200000" stroke="#000000" stroke-width="2" stroke-opacity="0.200000" points="447.11,-155.5 441.97,-151.76 448.32,-151.48 447.11,-155.5"/>
</g>
<!-- src/open/vectorFeature.ts&#45;&gt;src/base/index.ts -->
<g id="edge28" class="edge">
<title>src/open/vectorFeature.ts&#45;&gt;src/base/index.ts</title>
<path fill="none" stroke="#000000" stroke-width="2" stroke-opacity="0.200000" d="M460.64,-153.77C451.24,-147.68 438.52,-139.63 427,-133 389.1,-111.21 344,-88.16 316,-74.18"/>
<polygon fill="#000000" fill-opacity="0.200000" stroke="#000000" stroke-width="2" stroke-opacity="0.200000" points="317.24,-72.45 310.93,-71.66 315.37,-76.21 317.24,-72.45"/>
</g>
<!-- src/open/vectorFeature.ts&#45;&gt;src/open/columnCache.ts -->
<g id="edge31" class="edge">
<title>src/open/vectorFeature.ts&#45;&gt;src/open/columnCache.ts</title>
<path fill="none" stroke="#000000" stroke-width="2" stroke-opacity="0.200000" d="M516.69,-159.96C543.11,-157.93 578.71,-155.18 617.35,-152.09"/>
<polygon fill="#000000" fill-opacity="0.200000" stroke="#000000" stroke-width="2" stroke-opacity="0.200000" points="617.34,-154.19 623.15,-151.62 617,-150.01 617.34,-154.19"/>
</g>
<!-- src/open/vectorFeature.ts&#45;&gt;src/open/shape.ts -->
<g id="edge32" class="edge">
<title>src/open/vectorFeature.ts&#45;&gt;src/open/shape.ts</title>
<path fill="none" stroke="#000000" stroke-width="2" stroke-opacity="0.200000" d="M509.67,-153.69C517.48,-151.48 525.84,-149.13 533.74,-146.9"/>
<polygon fill="#000000" fill-opacity="0.200000" stroke="#000000" stroke-width="2" stroke-opacity="0.200000" points="534.3,-148.93 539.5,-145.28 533.16,-144.88 534.3,-148.93"/>
</g>
<!-- src/open/vectorFeature.ts&#45;&gt;src/util.ts -->
<g id="edge30" class="edge">
<title>src/open/vectorFeature.ts&#45;&gt;src/util.ts</title>
<path fill="none" stroke="#000000" stroke-width="2" stroke-opacity="0.200000" d="M516.74,-165.34C570.31,-168.47 664.36,-173.97 715.31,-176.94"/>
<polygon fill="#000000" fill-opacity="0.200000" stroke="#000000" stroke-width="2" stroke-opacity="0.200000" points="715.16,-179.04 721.28,-177.29 715.41,-174.85 715.16,-179.04"/>
</g>
<!-- src/open/vectorFeature.ts&#45;&gt;src/pbf.ts -->
<g id="edge29" class="edge">
<title>src/open/vectorFeature.ts&#45;&gt;src/pbf.ts</title>
<path fill="none" stroke="#000000" stroke-width="2" stroke-opacity="0.200000" d="M511.51,-172.16C513.22,-173.3 514.81,-174.57 516.25,-176 529.2,-188.89 516.45,-201.97 529.25,-215 530.86,-216.64 532.67,-218.09 534.62,-219.37"/>
<polygon fill="#000000" fill-opacity="0.200000" stroke="#000000" stroke-width="2" stroke-opacity="0.200000" points="533.62,-221.21 539.91,-222.11 535.55,-217.48 533.62,-221.21"/>
</g>
</g>
</svg>
